%TF.GenerationSoftware,KiCad,Pcbnew,9.0.7*%
%TF.CreationDate,2026-01-06T23:00:18-05:00*%
%TF.ProjectId,esp32-pedal-pcb,65737033-322d-4706-9564-616c2d706362,rev?*%
%TF.SameCoordinates,Original*%
%TF.FileFunction,Copper,L1,Top*%
%TF.FilePolarity,Positive*%
%FSLAX46Y46*%
G04 Gerber Fmt 4.6, Leading zero omitted, Abs format (unit mm)*
G04 Created by KiCad (PCBNEW 9.0.7) date 2026-01-06 23:00:18*
%MOMM*%
%LPD*%
G01*
G04 APERTURE LIST*
G04 Aperture macros list*
%AMRoundRect*
0 Rectangle with rounded corners*
0 $1 Rounding radius*
0 $2 $3 $4 $5 $6 $7 $8 $9 X,Y pos of 4 corners*
0 Add a 4 corners polygon primitive as box body*
4,1,4,$2,$3,$4,$5,$6,$7,$8,$9,$2,$3,0*
0 Add four circle primitives for the rounded corners*
1,1,$1+$1,$2,$3*
1,1,$1+$1,$4,$5*
1,1,$1+$1,$6,$7*
1,1,$1+$1,$8,$9*
0 Add four rect primitives between the rounded corners*
20,1,$1+$1,$2,$3,$4,$5,0*
20,1,$1+$1,$4,$5,$6,$7,0*
20,1,$1+$1,$6,$7,$8,$9,0*
20,1,$1+$1,$8,$9,$2,$3,0*%
G04 Aperture macros list end*
%ADD10C,0.300000*%
%TA.AperFunction,NonConductor*%
%ADD11C,0.300000*%
%TD*%
%TA.AperFunction,SMDPad,CuDef*%
%ADD12RoundRect,0.200000X-0.275000X0.200000X-0.275000X-0.200000X0.275000X-0.200000X0.275000X0.200000X0*%
%TD*%
%TA.AperFunction,SMDPad,CuDef*%
%ADD13RoundRect,0.225000X0.250000X-0.225000X0.250000X0.225000X-0.250000X0.225000X-0.250000X-0.225000X0*%
%TD*%
%TA.AperFunction,ComponentPad*%
%ADD14RoundRect,0.250000X-0.550000X-0.550000X0.550000X-0.550000X0.550000X0.550000X-0.550000X0.550000X0*%
%TD*%
%TA.AperFunction,ComponentPad*%
%ADD15C,1.600000*%
%TD*%
%TA.AperFunction,SMDPad,CuDef*%
%ADD16RoundRect,0.200000X0.275000X-0.200000X0.275000X0.200000X-0.275000X0.200000X-0.275000X-0.200000X0*%
%TD*%
%TA.AperFunction,SMDPad,CuDef*%
%ADD17RoundRect,0.225000X-0.250000X0.225000X-0.250000X-0.225000X0.250000X-0.225000X0.250000X0.225000X0*%
%TD*%
%TA.AperFunction,SMDPad,CuDef*%
%ADD18R,1.500000X1.000000*%
%TD*%
%TA.AperFunction,SMDPad,CuDef*%
%ADD19RoundRect,0.200000X0.200000X0.275000X-0.200000X0.275000X-0.200000X-0.275000X0.200000X-0.275000X0*%
%TD*%
%TA.AperFunction,SMDPad,CuDef*%
%ADD20RoundRect,0.225000X-0.225000X-0.250000X0.225000X-0.250000X0.225000X0.250000X-0.225000X0.250000X0*%
%TD*%
%TA.AperFunction,SMDPad,CuDef*%
%ADD21R,0.900000X1.500000*%
%TD*%
%TA.AperFunction,SMDPad,CuDef*%
%ADD22R,1.500000X0.900000*%
%TD*%
%TA.AperFunction,HeatsinkPad*%
%ADD23C,0.600000*%
%TD*%
%TA.AperFunction,HeatsinkPad*%
%ADD24R,3.900000X3.900000*%
%TD*%
%TA.AperFunction,ComponentPad*%
%ADD25RoundRect,0.250000X0.550000X0.550000X-0.550000X0.550000X-0.550000X-0.550000X0.550000X-0.550000X0*%
%TD*%
%TA.AperFunction,SMDPad,CuDef*%
%ADD26RoundRect,0.062500X-0.350000X-0.062500X0.350000X-0.062500X0.350000X0.062500X-0.350000X0.062500X0*%
%TD*%
%TA.AperFunction,SMDPad,CuDef*%
%ADD27RoundRect,0.062500X-0.062500X-0.350000X0.062500X-0.350000X0.062500X0.350000X-0.062500X0.350000X0*%
%TD*%
%TA.AperFunction,HeatsinkPad*%
%ADD28R,2.500000X2.500000*%
%TD*%
%TA.AperFunction,SMDPad,CuDef*%
%ADD29R,1.000000X0.750000*%
%TD*%
%TA.AperFunction,SMDPad,CuDef*%
%ADD30RoundRect,0.150000X0.587500X0.150000X-0.587500X0.150000X-0.587500X-0.150000X0.587500X-0.150000X0*%
%TD*%
%TA.AperFunction,SMDPad,CuDef*%
%ADD31RoundRect,0.072500X0.532500X0.217500X-0.532500X0.217500X-0.532500X-0.217500X0.532500X-0.217500X0*%
%TD*%
%TA.AperFunction,SMDPad,CuDef*%
%ADD32RoundRect,0.200000X-0.200000X-0.275000X0.200000X-0.275000X0.200000X0.275000X-0.200000X0.275000X0*%
%TD*%
%TA.AperFunction,SMDPad,CuDef*%
%ADD33RoundRect,0.150000X0.150000X0.425000X-0.150000X0.425000X-0.150000X-0.425000X0.150000X-0.425000X0*%
%TD*%
%TA.AperFunction,SMDPad,CuDef*%
%ADD34RoundRect,0.075000X0.075000X0.500000X-0.075000X0.500000X-0.075000X-0.500000X0.075000X-0.500000X0*%
%TD*%
%TA.AperFunction,SMDPad,CuDef*%
%ADD35RoundRect,0.250000X0.840000X0.750000X-0.840000X0.750000X-0.840000X-0.750000X0.840000X-0.750000X0*%
%TD*%
%TA.AperFunction,SMDPad,CuDef*%
%ADD36RoundRect,0.150000X-0.512500X-0.150000X0.512500X-0.150000X0.512500X0.150000X-0.512500X0.150000X0*%
%TD*%
%TA.AperFunction,SMDPad,CuDef*%
%ADD37RoundRect,0.225000X0.225000X0.250000X-0.225000X0.250000X-0.225000X-0.250000X0.225000X-0.250000X0*%
%TD*%
%TA.AperFunction,SMDPad,CuDef*%
%ADD38RoundRect,0.075000X0.075000X0.075000X-0.075000X0.075000X-0.075000X-0.075000X0.075000X-0.075000X0*%
%TD*%
%TA.AperFunction,SMDPad,CuDef*%
%ADD39RoundRect,0.250000X-0.400000X-0.450000X0.400000X-0.450000X0.400000X0.450000X-0.400000X0.450000X0*%
%TD*%
%TA.AperFunction,ComponentPad*%
%ADD40RoundRect,0.249999X-1.250001X-1.250001X1.250001X-1.250001X1.250001X1.250001X-1.250001X1.250001X0*%
%TD*%
%TA.AperFunction,ComponentPad*%
%ADD41C,3.000000*%
%TD*%
%TA.AperFunction,ViaPad*%
%ADD42C,0.800000*%
%TD*%
%TA.AperFunction,Conductor*%
%ADD43C,0.300000*%
%TD*%
%TA.AperFunction,Conductor*%
%ADD44C,0.250000*%
%TD*%
%TA.AperFunction,Conductor*%
%ADD45C,0.200000*%
%TD*%
%TA.AperFunction,Conductor*%
%ADD46C,0.500000*%
%TD*%
G04 APERTURE END LIST*
D10*
D11*
X97983082Y-110229400D02*
X98197368Y-110300828D01*
X98197368Y-110300828D02*
X98554510Y-110300828D01*
X98554510Y-110300828D02*
X98697368Y-110229400D01*
X98697368Y-110229400D02*
X98768796Y-110157971D01*
X98768796Y-110157971D02*
X98840225Y-110015114D01*
X98840225Y-110015114D02*
X98840225Y-109872257D01*
X98840225Y-109872257D02*
X98768796Y-109729400D01*
X98768796Y-109729400D02*
X98697368Y-109657971D01*
X98697368Y-109657971D02*
X98554510Y-109586542D01*
X98554510Y-109586542D02*
X98268796Y-109515114D01*
X98268796Y-109515114D02*
X98125939Y-109443685D01*
X98125939Y-109443685D02*
X98054510Y-109372257D01*
X98054510Y-109372257D02*
X97983082Y-109229400D01*
X97983082Y-109229400D02*
X97983082Y-109086542D01*
X97983082Y-109086542D02*
X98054510Y-108943685D01*
X98054510Y-108943685D02*
X98125939Y-108872257D01*
X98125939Y-108872257D02*
X98268796Y-108800828D01*
X98268796Y-108800828D02*
X98625939Y-108800828D01*
X98625939Y-108800828D02*
X98840225Y-108872257D01*
X100125939Y-110229400D02*
X99983081Y-110300828D01*
X99983081Y-110300828D02*
X99697367Y-110300828D01*
X99697367Y-110300828D02*
X99554510Y-110229400D01*
X99554510Y-110229400D02*
X99483081Y-110157971D01*
X99483081Y-110157971D02*
X99411653Y-110015114D01*
X99411653Y-110015114D02*
X99411653Y-109586542D01*
X99411653Y-109586542D02*
X99483081Y-109443685D01*
X99483081Y-109443685D02*
X99554510Y-109372257D01*
X99554510Y-109372257D02*
X99697367Y-109300828D01*
X99697367Y-109300828D02*
X99983081Y-109300828D01*
X99983081Y-109300828D02*
X100125939Y-109372257D01*
X100768795Y-110300828D02*
X100768795Y-108800828D01*
X101411653Y-110300828D02*
X101411653Y-109515114D01*
X101411653Y-109515114D02*
X101340224Y-109372257D01*
X101340224Y-109372257D02*
X101197367Y-109300828D01*
X101197367Y-109300828D02*
X100983081Y-109300828D01*
X100983081Y-109300828D02*
X100840224Y-109372257D01*
X100840224Y-109372257D02*
X100768795Y-109443685D01*
X102125938Y-109300828D02*
X102125938Y-110300828D01*
X102125938Y-109443685D02*
X102197367Y-109372257D01*
X102197367Y-109372257D02*
X102340224Y-109300828D01*
X102340224Y-109300828D02*
X102554510Y-109300828D01*
X102554510Y-109300828D02*
X102697367Y-109372257D01*
X102697367Y-109372257D02*
X102768796Y-109515114D01*
X102768796Y-109515114D02*
X102768796Y-110300828D01*
X103483081Y-110300828D02*
X103483081Y-109300828D01*
X103483081Y-108800828D02*
X103411653Y-108872257D01*
X103411653Y-108872257D02*
X103483081Y-108943685D01*
X103483081Y-108943685D02*
X103554510Y-108872257D01*
X103554510Y-108872257D02*
X103483081Y-108800828D01*
X103483081Y-108800828D02*
X103483081Y-108943685D01*
X104840225Y-110229400D02*
X104697367Y-110300828D01*
X104697367Y-110300828D02*
X104411653Y-110300828D01*
X104411653Y-110300828D02*
X104268796Y-110229400D01*
X104268796Y-110229400D02*
X104197367Y-110157971D01*
X104197367Y-110157971D02*
X104125939Y-110015114D01*
X104125939Y-110015114D02*
X104125939Y-109586542D01*
X104125939Y-109586542D02*
X104197367Y-109443685D01*
X104197367Y-109443685D02*
X104268796Y-109372257D01*
X104268796Y-109372257D02*
X104411653Y-109300828D01*
X104411653Y-109300828D02*
X104697367Y-109300828D01*
X104697367Y-109300828D02*
X104840225Y-109372257D01*
X105483081Y-110300828D02*
X105483081Y-108800828D01*
X105625939Y-109729400D02*
X106054510Y-110300828D01*
X106054510Y-109300828D02*
X105483081Y-109872257D01*
X107268796Y-110229400D02*
X107125939Y-110300828D01*
X107125939Y-110300828D02*
X106840225Y-110300828D01*
X106840225Y-110300828D02*
X106697367Y-110229400D01*
X106697367Y-110229400D02*
X106625939Y-110086542D01*
X106625939Y-110086542D02*
X106625939Y-109515114D01*
X106625939Y-109515114D02*
X106697367Y-109372257D01*
X106697367Y-109372257D02*
X106840225Y-109300828D01*
X106840225Y-109300828D02*
X107125939Y-109300828D01*
X107125939Y-109300828D02*
X107268796Y-109372257D01*
X107268796Y-109372257D02*
X107340225Y-109515114D01*
X107340225Y-109515114D02*
X107340225Y-109657971D01*
X107340225Y-109657971D02*
X106625939Y-109800828D01*
X107983081Y-110300828D02*
X107983081Y-109300828D01*
X107983081Y-109586542D02*
X108054510Y-109443685D01*
X108054510Y-109443685D02*
X108125939Y-109372257D01*
X108125939Y-109372257D02*
X108268796Y-109300828D01*
X108268796Y-109300828D02*
X108411653Y-109300828D01*
X110054509Y-110300828D02*
X110054509Y-108800828D01*
X110054509Y-108800828D02*
X110411652Y-108800828D01*
X110411652Y-108800828D02*
X110625938Y-108872257D01*
X110625938Y-108872257D02*
X110768795Y-109015114D01*
X110768795Y-109015114D02*
X110840224Y-109157971D01*
X110840224Y-109157971D02*
X110911652Y-109443685D01*
X110911652Y-109443685D02*
X110911652Y-109657971D01*
X110911652Y-109657971D02*
X110840224Y-109943685D01*
X110840224Y-109943685D02*
X110768795Y-110086542D01*
X110768795Y-110086542D02*
X110625938Y-110229400D01*
X110625938Y-110229400D02*
X110411652Y-110300828D01*
X110411652Y-110300828D02*
X110054509Y-110300828D01*
X112125938Y-110229400D02*
X111983081Y-110300828D01*
X111983081Y-110300828D02*
X111697367Y-110300828D01*
X111697367Y-110300828D02*
X111554509Y-110229400D01*
X111554509Y-110229400D02*
X111483081Y-110086542D01*
X111483081Y-110086542D02*
X111483081Y-109515114D01*
X111483081Y-109515114D02*
X111554509Y-109372257D01*
X111554509Y-109372257D02*
X111697367Y-109300828D01*
X111697367Y-109300828D02*
X111983081Y-109300828D01*
X111983081Y-109300828D02*
X112125938Y-109372257D01*
X112125938Y-109372257D02*
X112197367Y-109515114D01*
X112197367Y-109515114D02*
X112197367Y-109657971D01*
X112197367Y-109657971D02*
X111483081Y-109800828D01*
X112768795Y-110229400D02*
X112911652Y-110300828D01*
X112911652Y-110300828D02*
X113197366Y-110300828D01*
X113197366Y-110300828D02*
X113340223Y-110229400D01*
X113340223Y-110229400D02*
X113411652Y-110086542D01*
X113411652Y-110086542D02*
X113411652Y-110015114D01*
X113411652Y-110015114D02*
X113340223Y-109872257D01*
X113340223Y-109872257D02*
X113197366Y-109800828D01*
X113197366Y-109800828D02*
X112983081Y-109800828D01*
X112983081Y-109800828D02*
X112840223Y-109729400D01*
X112840223Y-109729400D02*
X112768795Y-109586542D01*
X112768795Y-109586542D02*
X112768795Y-109515114D01*
X112768795Y-109515114D02*
X112840223Y-109372257D01*
X112840223Y-109372257D02*
X112983081Y-109300828D01*
X112983081Y-109300828D02*
X113197366Y-109300828D01*
X113197366Y-109300828D02*
X113340223Y-109372257D01*
X114054509Y-110300828D02*
X114054509Y-109300828D01*
X114054509Y-108800828D02*
X113983081Y-108872257D01*
X113983081Y-108872257D02*
X114054509Y-108943685D01*
X114054509Y-108943685D02*
X114125938Y-108872257D01*
X114125938Y-108872257D02*
X114054509Y-108800828D01*
X114054509Y-108800828D02*
X114054509Y-108943685D01*
X115411653Y-109300828D02*
X115411653Y-110515114D01*
X115411653Y-110515114D02*
X115340224Y-110657971D01*
X115340224Y-110657971D02*
X115268795Y-110729400D01*
X115268795Y-110729400D02*
X115125938Y-110800828D01*
X115125938Y-110800828D02*
X114911653Y-110800828D01*
X114911653Y-110800828D02*
X114768795Y-110729400D01*
X115411653Y-110229400D02*
X115268795Y-110300828D01*
X115268795Y-110300828D02*
X114983081Y-110300828D01*
X114983081Y-110300828D02*
X114840224Y-110229400D01*
X114840224Y-110229400D02*
X114768795Y-110157971D01*
X114768795Y-110157971D02*
X114697367Y-110015114D01*
X114697367Y-110015114D02*
X114697367Y-109586542D01*
X114697367Y-109586542D02*
X114768795Y-109443685D01*
X114768795Y-109443685D02*
X114840224Y-109372257D01*
X114840224Y-109372257D02*
X114983081Y-109300828D01*
X114983081Y-109300828D02*
X115268795Y-109300828D01*
X115268795Y-109300828D02*
X115411653Y-109372257D01*
X116125938Y-109300828D02*
X116125938Y-110300828D01*
X116125938Y-109443685D02*
X116197367Y-109372257D01*
X116197367Y-109372257D02*
X116340224Y-109300828D01*
X116340224Y-109300828D02*
X116554510Y-109300828D01*
X116554510Y-109300828D02*
X116697367Y-109372257D01*
X116697367Y-109372257D02*
X116768796Y-109515114D01*
X116768796Y-109515114D02*
X116768796Y-110300828D01*
X117411653Y-110229400D02*
X117554510Y-110300828D01*
X117554510Y-110300828D02*
X117840224Y-110300828D01*
X117840224Y-110300828D02*
X117983081Y-110229400D01*
X117983081Y-110229400D02*
X118054510Y-110086542D01*
X118054510Y-110086542D02*
X118054510Y-110015114D01*
X118054510Y-110015114D02*
X117983081Y-109872257D01*
X117983081Y-109872257D02*
X117840224Y-109800828D01*
X117840224Y-109800828D02*
X117625939Y-109800828D01*
X117625939Y-109800828D02*
X117483081Y-109729400D01*
X117483081Y-109729400D02*
X117411653Y-109586542D01*
X117411653Y-109586542D02*
X117411653Y-109515114D01*
X117411653Y-109515114D02*
X117483081Y-109372257D01*
X117483081Y-109372257D02*
X117625939Y-109300828D01*
X117625939Y-109300828D02*
X117840224Y-109300828D01*
X117840224Y-109300828D02*
X117983081Y-109372257D01*
X118768796Y-110229400D02*
X118768796Y-110300828D01*
X118768796Y-110300828D02*
X118697367Y-110443685D01*
X118697367Y-110443685D02*
X118625939Y-110515114D01*
X120483082Y-108943685D02*
X120554510Y-108872257D01*
X120554510Y-108872257D02*
X120697368Y-108800828D01*
X120697368Y-108800828D02*
X121054510Y-108800828D01*
X121054510Y-108800828D02*
X121197368Y-108872257D01*
X121197368Y-108872257D02*
X121268796Y-108943685D01*
X121268796Y-108943685D02*
X121340225Y-109086542D01*
X121340225Y-109086542D02*
X121340225Y-109229400D01*
X121340225Y-109229400D02*
X121268796Y-109443685D01*
X121268796Y-109443685D02*
X120411653Y-110300828D01*
X120411653Y-110300828D02*
X121340225Y-110300828D01*
X122268796Y-108800828D02*
X122411653Y-108800828D01*
X122411653Y-108800828D02*
X122554510Y-108872257D01*
X122554510Y-108872257D02*
X122625939Y-108943685D01*
X122625939Y-108943685D02*
X122697367Y-109086542D01*
X122697367Y-109086542D02*
X122768796Y-109372257D01*
X122768796Y-109372257D02*
X122768796Y-109729400D01*
X122768796Y-109729400D02*
X122697367Y-110015114D01*
X122697367Y-110015114D02*
X122625939Y-110157971D01*
X122625939Y-110157971D02*
X122554510Y-110229400D01*
X122554510Y-110229400D02*
X122411653Y-110300828D01*
X122411653Y-110300828D02*
X122268796Y-110300828D01*
X122268796Y-110300828D02*
X122125939Y-110229400D01*
X122125939Y-110229400D02*
X122054510Y-110157971D01*
X122054510Y-110157971D02*
X121983081Y-110015114D01*
X121983081Y-110015114D02*
X121911653Y-109729400D01*
X121911653Y-109729400D02*
X121911653Y-109372257D01*
X121911653Y-109372257D02*
X121983081Y-109086542D01*
X121983081Y-109086542D02*
X122054510Y-108943685D01*
X122054510Y-108943685D02*
X122125939Y-108872257D01*
X122125939Y-108872257D02*
X122268796Y-108800828D01*
X123340224Y-108943685D02*
X123411652Y-108872257D01*
X123411652Y-108872257D02*
X123554510Y-108800828D01*
X123554510Y-108800828D02*
X123911652Y-108800828D01*
X123911652Y-108800828D02*
X124054510Y-108872257D01*
X124054510Y-108872257D02*
X124125938Y-108943685D01*
X124125938Y-108943685D02*
X124197367Y-109086542D01*
X124197367Y-109086542D02*
X124197367Y-109229400D01*
X124197367Y-109229400D02*
X124125938Y-109443685D01*
X124125938Y-109443685D02*
X123268795Y-110300828D01*
X123268795Y-110300828D02*
X124197367Y-110300828D01*
X125483081Y-108800828D02*
X125197366Y-108800828D01*
X125197366Y-108800828D02*
X125054509Y-108872257D01*
X125054509Y-108872257D02*
X124983081Y-108943685D01*
X124983081Y-108943685D02*
X124840223Y-109157971D01*
X124840223Y-109157971D02*
X124768795Y-109443685D01*
X124768795Y-109443685D02*
X124768795Y-110015114D01*
X124768795Y-110015114D02*
X124840223Y-110157971D01*
X124840223Y-110157971D02*
X124911652Y-110229400D01*
X124911652Y-110229400D02*
X125054509Y-110300828D01*
X125054509Y-110300828D02*
X125340223Y-110300828D01*
X125340223Y-110300828D02*
X125483081Y-110229400D01*
X125483081Y-110229400D02*
X125554509Y-110157971D01*
X125554509Y-110157971D02*
X125625938Y-110015114D01*
X125625938Y-110015114D02*
X125625938Y-109657971D01*
X125625938Y-109657971D02*
X125554509Y-109515114D01*
X125554509Y-109515114D02*
X125483081Y-109443685D01*
X125483081Y-109443685D02*
X125340223Y-109372257D01*
X125340223Y-109372257D02*
X125054509Y-109372257D01*
X125054509Y-109372257D02*
X124911652Y-109443685D01*
X124911652Y-109443685D02*
X124840223Y-109515114D01*
X124840223Y-109515114D02*
X124768795Y-109657971D01*
D12*
%TO.P,R12,1*%
%TO.N,Net-(U1-THERM)*%
X128500000Y-106675000D03*
%TO.P,R12,2*%
%TO.N,Net-(R12-Pad2)*%
X128500000Y-108325000D03*
%TD*%
D13*
%TO.P,C8,2*%
%TO.N,/3V3*%
X240500000Y-89225000D03*
%TO.P,C8,1*%
%TO.N,Net-(U3-3V3)*%
X240500000Y-90775000D03*
%TD*%
D14*
%TO.P,TH1,1*%
%TO.N,Net-(R12-Pad2)*%
X129200000Y-110500000D03*
D15*
%TO.P,TH1,2*%
%TO.N,GND*%
X132800000Y-110500000D03*
%TD*%
D16*
%TO.P,R4,1*%
%TO.N,GND*%
X139500000Y-99325000D03*
%TO.P,R4,2*%
%TO.N,Net-(J1-CC2)*%
X139500000Y-97675000D03*
%TD*%
%TO.P,R6,1*%
%TO.N,GND*%
X207000000Y-95325000D03*
%TO.P,R6,2*%
%TO.N,Net-(Push1-Pad1)*%
X207000000Y-93675000D03*
%TD*%
D12*
%TO.P,R5,1*%
%TO.N,GND*%
X130000000Y-106675000D03*
%TO.P,R5,2*%
%TO.N,Net-(R12-Pad2)*%
X130000000Y-108325000D03*
%TD*%
D13*
%TO.P,C1,1*%
%TO.N,/3V3*%
X154000000Y-104275000D03*
%TO.P,C1,2*%
%TO.N,GND*%
X154000000Y-102725000D03*
%TD*%
D17*
%TO.P,C9,1*%
%TO.N,Net-(C3-Pad1)*%
X136500000Y-101000000D03*
%TO.P,C9,2*%
%TO.N,/VBUS P*%
X136500000Y-102550000D03*
%TD*%
D18*
%TO.P,D1,1,VSS*%
%TO.N,GND*%
X147100000Y-101000000D03*
%TO.P,D1,2,DIN*%
%TO.N,Net-(D1-DIN)*%
X147100000Y-104200000D03*
%TO.P,D1,3,VDD*%
%TO.N,/3V3*%
X152000000Y-104200000D03*
%TO.P,D1,4,DO*%
%TO.N,unconnected-(D1-DO-Pad4)*%
X152000000Y-101000000D03*
%TD*%
D19*
%TO.P,R15,1*%
%TO.N,/Led DIN*%
X148754834Y-106168422D03*
%TO.P,R15,2*%
%TO.N,Net-(D1-DIN)*%
X147104834Y-106168422D03*
%TD*%
D20*
%TO.P,C5,1*%
%TO.N,Net-(SW1-A)*%
X36225000Y-95500000D03*
%TO.P,C5,2*%
%TO.N,/MCP OUT 5V*%
X37775000Y-95500000D03*
%TD*%
D21*
%TO.P,U3,1,GND*%
%TO.N,GND*%
X241620000Y-92850000D03*
%TO.P,U3,2,3V3*%
%TO.N,Net-(U3-3V3)*%
X240350000Y-92850000D03*
%TO.P,U3,3,EN*%
%TO.N,/RESET*%
X239080000Y-92850000D03*
%TO.P,U3,4,GPIO4/TOUCH4/ADC1_CH3*%
%TO.N,Net-(U1-STAT1{slash}~{LBO})*%
X237810000Y-92850000D03*
%TO.P,U3,5,GPIO5/TOUCH5/ADC1_CH4*%
%TO.N,Net-(SW2-C)*%
X236540000Y-92850000D03*
%TO.P,U3,6,GPIO6/TOUCH6/ADC1_CH5*%
%TO.N,Net-(SW2-A)*%
X235270000Y-92850000D03*
%TO.P,U3,7,GPIO7/TOUCH7/ADC1_CH6*%
%TO.N,Net-(SW3-A)*%
X234000000Y-92850000D03*
%TO.P,U3,8,GPIO15/U0RTS/ADC2_CH4/XTAL_32K_P*%
%TO.N,unconnected-(U3-GPIO15{slash}U0RTS{slash}ADC2_CH4{slash}XTAL_32K_P-Pad8)*%
X232730000Y-92850000D03*
%TO.P,U3,9,GPIO16/U0CTS/ADC2_CH5/XTAL_32K_N*%
%TO.N,unconnected-(U3-GPIO16{slash}U0CTS{slash}ADC2_CH5{slash}XTAL_32K_N-Pad9)*%
X231460000Y-92850000D03*
%TO.P,U3,10,GPIO17/U1TXD/ADC2_CH6*%
%TO.N,unconnected-(U3-GPIO17{slash}U1TXD{slash}ADC2_CH6-Pad10)*%
X230190000Y-92850000D03*
%TO.P,U3,11,GPIO18/U1RXD/ADC2_CH7/CLK_OUT3*%
%TO.N,unconnected-(U3-GPIO18{slash}U1RXD{slash}ADC2_CH7{slash}CLK_OUT3-Pad11)*%
X228920000Y-92850000D03*
%TO.P,U3,12,GPIO8/TOUCH8/ADC1_CH7/SUBSPICS1*%
%TO.N,unconnected-(U3-GPIO8{slash}TOUCH8{slash}ADC1_CH7{slash}SUBSPICS1-Pad12)*%
X227650000Y-92850000D03*
%TO.P,U3,13,GPIO19/U1RTS/ADC2_CH8/CLK_OUT2/USB_D-*%
%TO.N,/DATA+*%
X226380000Y-92850000D03*
%TO.P,U3,14,GPIO20/U1CTS/ADC2_CH9/CLK_OUT1/USB_D+*%
%TO.N,/DATA-*%
X225110000Y-92850000D03*
D22*
%TO.P,U3,15,GPIO3/TOUCH3/ADC1_CH2*%
%TO.N,Net-(U3-GPIO3{slash}TOUCH3{slash}ADC1_CH2)*%
X223860000Y-94615000D03*
%TO.P,U3,16,GPIO46*%
%TO.N,unconnected-(U3-GPIO46-Pad16)*%
X223860000Y-95885000D03*
%TO.P,U3,17,GPIO9/TOUCH9/ADC1_CH8/FSPIHD/SUBSPIHD*%
%TO.N,unconnected-(U3-GPIO9{slash}TOUCH9{slash}ADC1_CH8{slash}FSPIHD{slash}SUBSPIHD-Pad17)*%
X223860000Y-97155000D03*
%TO.P,U3,18,GPIO10/TOUCH10/ADC1_CH9/FSPICS0/FSPIIO4/SUBSPICS0*%
%TO.N,unconnected-(U3-GPIO10{slash}TOUCH10{slash}ADC1_CH9{slash}FSPICS0{slash}FSPIIO4{slash}SUBSPICS0-Pad18)*%
X223860000Y-98425000D03*
%TO.P,U3,19,GPIO11/TOUCH11/ADC2_CH0/FSPID/FSPIIO5/SUBSPID*%
%TO.N,unconnected-(U3-GPIO11{slash}TOUCH11{slash}ADC2_CH0{slash}FSPID{slash}FSPIIO5{slash}SUBSPID-Pad19)*%
X223860000Y-99695000D03*
%TO.P,U3,20,GPIO12/TOUCH12/ADC2_CH1/FSPICLK/FSPIIO6/SUBSPICLK*%
%TO.N,unconnected-(U3-GPIO12{slash}TOUCH12{slash}ADC2_CH1{slash}FSPICLK{slash}FSPIIO6{slash}SUBSPICLK-Pad20)*%
X223860000Y-100965000D03*
%TO.P,U3,21,GPIO13/TOUCH13/ADC2_CH2/FSPIQ/FSPIIO7/SUBSPIQ*%
%TO.N,unconnected-(U3-GPIO13{slash}TOUCH13{slash}ADC2_CH2{slash}FSPIQ{slash}FSPIIO7{slash}SUBSPIQ-Pad21)*%
X223860000Y-102235000D03*
%TO.P,U3,22,GPIO14/TOUCH14/ADC2_CH3/FSPIWP/FSPIDQS/SUBSPIWP*%
%TO.N,unconnected-(U3-GPIO14{slash}TOUCH14{slash}ADC2_CH3{slash}FSPIWP{slash}FSPIDQS{slash}SUBSPIWP-Pad22)*%
X223860000Y-103505000D03*
%TO.P,U3,23,GPIO21*%
%TO.N,unconnected-(U3-GPIO21-Pad23)*%
X223860000Y-104775000D03*
%TO.P,U3,24,GPIO47/SPICLK_P/SUBSPICLK_P_DIFF*%
%TO.N,unconnected-(U3-GPIO47{slash}SPICLK_P{slash}SUBSPICLK_P_DIFF-Pad24)*%
X223860000Y-106045000D03*
%TO.P,U3,25,GPIO48/SPICLK_N/SUBSPICLK_N_DIFF*%
%TO.N,unconnected-(U3-GPIO48{slash}SPICLK_N{slash}SUBSPICLK_N_DIFF-Pad25)*%
X223860000Y-107315000D03*
%TO.P,U3,26,GPIO45*%
%TO.N,unconnected-(U3-GPIO45-Pad26)*%
X223860000Y-108585000D03*
D21*
%TO.P,U3,27,GPIO0/BOOT*%
%TO.N,/BOOT*%
X225110000Y-110350000D03*
%TO.P,U3,28,SPIIO6/GPIO35/FSPID/SUBSPID*%
%TO.N,unconnected-(U3-SPIIO6{slash}GPIO35{slash}FSPID{slash}SUBSPID-Pad28)*%
X226380000Y-110350000D03*
%TO.P,U3,29,SPIIO7/GPIO36/FSPICLK/SUBSPICLK*%
%TO.N,unconnected-(U3-SPIIO7{slash}GPIO36{slash}FSPICLK{slash}SUBSPICLK-Pad29)*%
X227650000Y-110350000D03*
%TO.P,U3,30,SPIDQS/GPIO37/FSPIQ/SUBSPIQ*%
%TO.N,unconnected-(U3-SPIDQS{slash}GPIO37{slash}FSPIQ{slash}SUBSPIQ-Pad30)*%
X228920000Y-110350000D03*
%TO.P,U3,31,GPIO38/FSPIWP/SUBSPIWP*%
%TO.N,unconnected-(U3-GPIO38{slash}FSPIWP{slash}SUBSPIWP-Pad31)*%
X230190000Y-110350000D03*
%TO.P,U3,32,MTCK/GPIO39/CLK_OUT3/SUBSPICS1*%
%TO.N,unconnected-(U3-MTCK{slash}GPIO39{slash}CLK_OUT3{slash}SUBSPICS1-Pad32)*%
X231460000Y-110350000D03*
%TO.P,U3,33,MTDO/GPIO40/CLK_OUT2*%
%TO.N,unconnected-(U3-MTDO{slash}GPIO40{slash}CLK_OUT2-Pad33)*%
X232730000Y-110350000D03*
%TO.P,U3,34,MTDI/GPIO41/CLK_OUT1*%
%TO.N,unconnected-(U3-MTDI{slash}GPIO41{slash}CLK_OUT1-Pad34)*%
X234000000Y-110350000D03*
%TO.P,U3,35,MTMS/GPIO42*%
%TO.N,unconnected-(U3-MTMS{slash}GPIO42-Pad35)*%
X235270000Y-110350000D03*
%TO.P,U3,36,U0RXD/GPIO44/CLK_OUT2*%
%TO.N,unconnected-(U3-U0RXD{slash}GPIO44{slash}CLK_OUT2-Pad36)*%
X236540000Y-110350000D03*
%TO.P,U3,37,U0TXD/GPIO43/CLK_OUT1*%
%TO.N,unconnected-(U3-U0TXD{slash}GPIO43{slash}CLK_OUT1-Pad37)*%
X237810000Y-110350000D03*
%TO.P,U3,38,GPIO2/TOUCH2/ADC1_CH1*%
%TO.N,/Led DIN*%
X239080000Y-110350000D03*
%TO.P,U3,39,GPIO1/TOUCH1/ADC1_CH0*%
%TO.N,unconnected-(U3-GPIO1{slash}TOUCH1{slash}ADC1_CH0-Pad39)*%
X240350000Y-110350000D03*
%TO.P,U3,40,GND*%
%TO.N,GND*%
X241620000Y-110350000D03*
D23*
%TO.P,U3,41,GND*%
X234600000Y-98700000D03*
X233200000Y-98700000D03*
X235300000Y-99400000D03*
X233900000Y-99400000D03*
X232500000Y-99400000D03*
X234600000Y-100100000D03*
D24*
X233900000Y-100100000D03*
D23*
X233200000Y-100100000D03*
X235300000Y-100800000D03*
X233900000Y-100800000D03*
X232500000Y-100800000D03*
X234600000Y-101500000D03*
X233200000Y-101500000D03*
%TD*%
D17*
%TO.P,C7,1*%
%TO.N,GND*%
X206500000Y-106725000D03*
%TO.P,C7,2*%
%TO.N,/RESET*%
X206500000Y-108275000D03*
%TD*%
D13*
%TO.P,C4,1*%
%TO.N,GND*%
X221500000Y-99275000D03*
%TO.P,C4,2*%
%TO.N,Net-(C4-Pad2)*%
X221500000Y-97725000D03*
%TD*%
D12*
%TO.P,R11,1*%
%TO.N,/GATE*%
X43103468Y-99532858D03*
%TO.P,R11,2*%
%TO.N,GND*%
X43103468Y-101182858D03*
%TD*%
D25*
%TO.P,SW3,1,A*%
%TO.N,Net-(SW3-A)*%
X145500000Y-110500000D03*
D15*
%TO.P,SW3,2,B*%
%TO.N,GND*%
X141900000Y-110500000D03*
%TD*%
D14*
%TO.P,SW1,1,A*%
%TO.N,Net-(SW1-A)*%
X36800000Y-91000000D03*
D15*
%TO.P,SW1,2,B*%
%TO.N,/MCP OUT 5V SWITCHED*%
X40400000Y-91000000D03*
%TD*%
D16*
%TO.P,R3,1*%
%TO.N,GND*%
X141000000Y-99325000D03*
%TO.P,R3,2*%
%TO.N,Net-(J1-CC1)*%
X141000000Y-97675000D03*
%TD*%
D14*
%TO.P,SW2,1,A*%
%TO.N,Net-(SW2-A)*%
X223900000Y-89500000D03*
D15*
%TO.P,SW2,2,B*%
%TO.N,GND*%
X227500000Y-89500000D03*
%TO.P,SW2,3,C*%
%TO.N,Net-(SW2-C)*%
X231100000Y-89500000D03*
%TD*%
D26*
%TO.P,U1,1,OUT*%
%TO.N,/MCP OUT 5V*%
X128937500Y-102375000D03*
%TO.P,U1,2,VPCC*%
%TO.N,Net-(U1-VPCC)*%
X128937500Y-102875000D03*
%TO.P,U1,3,SEL*%
%TO.N,GND*%
X128937500Y-103375000D03*
%TO.P,U1,4,PROG2*%
%TO.N,/3V3*%
X128937500Y-103875000D03*
%TO.P,U1,5,THERM*%
%TO.N,Net-(U1-THERM)*%
X128937500Y-104375000D03*
D27*
%TO.P,U1,6,~{PG}*%
%TO.N,unconnected-(U1-~{PG}-Pad6)*%
X129875000Y-105312500D03*
%TO.P,U1,7,STAT2*%
%TO.N,unconnected-(U1-STAT2-Pad7)*%
X130375000Y-105312500D03*
%TO.P,U1,8,STAT1/~{LBO}*%
%TO.N,Net-(U1-STAT1{slash}~{LBO})*%
X130875000Y-105312500D03*
%TO.P,U1,9,~{TE}*%
%TO.N,GND*%
X131375000Y-105312500D03*
%TO.P,U1,10,V_{SS}*%
X131875000Y-105312500D03*
D26*
%TO.P,U1,11,V_{SS}*%
X132812500Y-104375000D03*
%TO.P,U1,12,PROG3*%
%TO.N,Net-(U1-PROG3)*%
X132812500Y-103875000D03*
%TO.P,U1,13,PROG1*%
%TO.N,Net-(U1-PROG1)*%
X132812500Y-103375000D03*
%TO.P,U1,14,V_{BAT}*%
%TO.N,Net-(Q1-D)*%
X132812500Y-102875000D03*
%TO.P,U1,15,V_{BAT}*%
X132812500Y-102375000D03*
D27*
%TO.P,U1,16,V_{BAT_SENSE}*%
X131875000Y-101437500D03*
%TO.P,U1,17,CE*%
%TO.N,GND*%
X131375000Y-101437500D03*
%TO.P,U1,18,IN*%
%TO.N,Net-(C2-Pad1)*%
X130875000Y-101437500D03*
%TO.P,U1,19,IN*%
X130375000Y-101437500D03*
%TO.P,U1,20,OUT*%
%TO.N,/MCP OUT 5V*%
X129875000Y-101437500D03*
D28*
%TO.P,U1,21,V_{SS}*%
%TO.N,GND*%
X130875000Y-103375000D03*
%TD*%
D20*
%TO.P,C2,1*%
%TO.N,Net-(C2-Pad1)*%
X130225000Y-99500000D03*
%TO.P,C2,2*%
%TO.N,/VBUS P*%
X131775000Y-99500000D03*
%TD*%
D29*
%TO.P,Push1,1,1*%
%TO.N,Net-(Push1-Pad1)*%
X208500000Y-92600000D03*
X214500000Y-92600000D03*
%TO.P,Push1,2,2*%
%TO.N,/BOOT*%
X208500000Y-96350000D03*
X214500000Y-96350000D03*
%TD*%
D30*
%TO.P,Q1,1,G*%
%TO.N,/GATE*%
X41275000Y-103789500D03*
%TO.P,Q1,2,S*%
%TO.N,/BAT+*%
X41275000Y-101889500D03*
%TO.P,Q1,3,D*%
%TO.N,Net-(Q1-D)*%
X39400000Y-102839500D03*
%TD*%
D31*
%TO.P,U6,1,IN*%
%TO.N,/VBUS*%
X140755000Y-102950000D03*
%TO.P,U6,2,GND*%
%TO.N,GND*%
X140755000Y-102000000D03*
%TO.P,U6,3,EN*%
%TO.N,/VBUS*%
X140755000Y-101050000D03*
%TO.P,U6,4,~{FAULT}*%
%TO.N,unconnected-(U6-~{FAULT}-Pad4)*%
X138245000Y-101050000D03*
%TO.P,U6,5,ILIM*%
%TO.N,Net-(U6-ILIM)*%
X138245000Y-102000000D03*
%TO.P,U6,6,OUT*%
%TO.N,/VBUS P*%
X138245000Y-102950000D03*
%TD*%
D29*
%TO.P,Push2,1,1*%
%TO.N,Net-(Push2-Pad1)*%
X208500000Y-104125000D03*
X214500000Y-104125000D03*
%TO.P,Push2,2,2*%
%TO.N,/RESET*%
X208500000Y-107875000D03*
X214500000Y-107875000D03*
%TD*%
D16*
%TO.P,R9,1*%
%TO.N,Net-(C4-Pad2)*%
X221500000Y-96325000D03*
%TO.P,R9,2*%
%TO.N,Net-(U3-GPIO3{slash}TOUCH3{slash}ADC1_CH2)*%
X221500000Y-94675000D03*
%TD*%
D12*
%TO.P,R2,1*%
%TO.N,Net-(U1-PROG3)*%
X136750000Y-104175000D03*
%TO.P,R2,2*%
%TO.N,GND*%
X136750000Y-105825000D03*
%TD*%
%TO.P,R13,1*%
%TO.N,/SHIELD*%
X131500000Y-94175000D03*
%TO.P,R13,2*%
%TO.N,GND*%
X131500000Y-95825000D03*
%TD*%
D32*
%TO.P,R10,1*%
%TO.N,Net-(Q1-D)*%
X40012500Y-100339500D03*
%TO.P,R10,2*%
%TO.N,Net-(U3-GPIO3{slash}TOUCH3{slash}ADC1_CH2)*%
X41662500Y-100339500D03*
%TD*%
%TO.P,R14,1*%
%TO.N,Net-(U6-ILIM)*%
X138175000Y-106500000D03*
%TO.P,R14,2*%
%TO.N,GND*%
X139825000Y-106500000D03*
%TD*%
D33*
%TO.P,J1,A1,GND*%
%TO.N,GND*%
X143131084Y-94874269D03*
%TO.P,J1,A4,VBUS*%
%TO.N,/VBUS*%
X142331084Y-94874269D03*
D34*
%TO.P,J1,A5,CC1*%
%TO.N,Net-(J1-CC1)*%
X141181084Y-94874269D03*
%TO.P,J1,A6,D+*%
%TO.N,/DATA+*%
X140181084Y-94874269D03*
%TO.P,J1,A7,D-*%
%TO.N,/DATA-*%
X139681084Y-94874269D03*
%TO.P,J1,A8*%
%TO.N,N/C*%
X138681084Y-94874269D03*
D33*
%TO.P,J1,A9,VBUS*%
%TO.N,/VBUS*%
X137531084Y-94874269D03*
%TO.P,J1,A12,GND*%
%TO.N,GND*%
X136731084Y-94874269D03*
%TO.P,J1,B1,GND*%
X136731084Y-94874269D03*
%TO.P,J1,B4,VBUS*%
%TO.N,/VBUS*%
X137531084Y-94874269D03*
D34*
%TO.P,J1,B5,CC2*%
%TO.N,Net-(J1-CC2)*%
X138181084Y-94874269D03*
%TO.P,J1,B6,D+*%
%TO.N,/DATA+*%
X139181084Y-94874269D03*
%TO.P,J1,B7,D-*%
%TO.N,/DATA-*%
X140681084Y-94874269D03*
%TO.P,J1,B8*%
%TO.N,N/C*%
X141681084Y-94874269D03*
D33*
%TO.P,J1,B9,VBUS*%
%TO.N,/VBUS*%
X142331084Y-94874269D03*
%TO.P,J1,B12,GND*%
%TO.N,GND*%
X143131084Y-94874269D03*
D35*
%TO.P,J1,S1,SHIELD*%
%TO.N,/SHIELD*%
X145041084Y-94299269D03*
X145041084Y-90369269D03*
X134821084Y-94299269D03*
X134821084Y-90369269D03*
%TD*%
D36*
%TO.P,U2,1,IN*%
%TO.N,/MCP OUT 5V SWITCHED*%
X129362500Y-90550000D03*
%TO.P,U2,2,GND*%
%TO.N,GND*%
X129362500Y-91500000D03*
%TO.P,U2,3,EN*%
%TO.N,/MCP OUT 5V SWITCHED*%
X129362500Y-92450000D03*
%TO.P,U2,4,NC*%
%TO.N,unconnected-(U2-NC-Pad4)*%
X131637500Y-92450000D03*
%TO.P,U2,5,OUT*%
%TO.N,/3V3*%
X131637500Y-90550000D03*
%TD*%
D37*
%TO.P,C3,1*%
%TO.N,Net-(C3-Pad1)*%
X136275000Y-99500000D03*
%TO.P,C3,2*%
%TO.N,Net-(U1-VPCC)*%
X134725000Y-99500000D03*
%TD*%
D38*
%TO.P,U4,1,D+*%
%TO.N,/DATA+*%
X149850000Y-91650000D03*
%TO.P,U4,2,D-*%
%TO.N,/DATA-*%
X149150000Y-91650000D03*
%TO.P,U4,3,GND*%
%TO.N,GND*%
X149500000Y-92500000D03*
%TD*%
D39*
%TO.P,D2,1,A1*%
%TO.N,/VBUS P*%
X141509107Y-104845106D03*
%TO.P,D2,2,A2*%
%TO.N,GND*%
X144409107Y-104845106D03*
%TD*%
D19*
%TO.P,R8,1*%
%TO.N,/3V3*%
X234825000Y-89000000D03*
%TO.P,R8,2*%
%TO.N,Net-(U1-STAT1{slash}~{LBO})*%
X233175000Y-89000000D03*
%TD*%
D16*
%TO.P,R7,1*%
%TO.N,GND*%
X206500000Y-105325000D03*
%TO.P,R7,2*%
%TO.N,Net-(Push2-Pad1)*%
X206500000Y-103675000D03*
%TD*%
D12*
%TO.P,R1,1*%
%TO.N,Net-(U1-PROG1)*%
X135250000Y-104175000D03*
%TO.P,R1,2*%
%TO.N,GND*%
X135250000Y-105825000D03*
%TD*%
D40*
%TO.P,BT1,1,+*%
%TO.N,/BAT+*%
X51050000Y-100500000D03*
D41*
%TO.P,BT1,2,-*%
%TO.N,GND*%
X123950000Y-100500000D03*
%TD*%
D42*
%TO.N,GND*%
X145500000Y-102500000D03*
X142500000Y-100000000D03*
%TO.N,Net-(Q1-D)*%
X134000000Y-103000000D03*
X44000000Y-103000000D03*
%TO.N,GND*%
X46000000Y-101000000D03*
%TO.N,/Led DIN*%
X239000000Y-106500000D03*
X150500000Y-106500000D03*
%TO.N,Net-(U1-VPCC)*%
X133000000Y-99125000D03*
X128820000Y-99499126D03*
%TO.N,/RESET*%
X238500000Y-95500000D03*
X216500000Y-108000000D03*
%TO.N,Net-(U1-STAT1{slash}~{LBO})*%
X166764582Y-110000000D03*
X238000000Y-108500000D03*
%TO.N,Net-(U3-GPIO3{slash}TOUCH3{slash}ADC1_CH2)*%
X217000000Y-95500000D03*
X40500000Y-98162500D03*
%TO.N,/VBUS*%
X142500000Y-96500000D03*
X137000000Y-96500000D03*
%TO.N,/3V3*%
X133000000Y-91500000D03*
X236949870Y-89000000D03*
X152500000Y-95000000D03*
%TO.N,/GATE*%
X38337500Y-98839500D03*
X44837500Y-98839500D03*
%TO.N,/DATA+*%
X140999976Y-92206976D03*
X226380000Y-95000000D03*
X150000000Y-90451000D03*
%TO.N,/DATA-*%
X141533335Y-93052868D03*
X149000000Y-91051000D03*
X225209999Y-95093884D03*
%TO.N,Net-(U6-ILIM)*%
X137500000Y-108000000D03*
X139500000Y-102000000D03*
%TO.N,/MCP OUT 5V SWITCHED*%
X127051431Y-91486025D03*
%TO.N,/MCP OUT 5V*%
X129500000Y-96875000D03*
X39500000Y-95500000D03*
%TO.N,GND*%
X154000000Y-101500000D03*
X134000000Y-106000000D03*
X128049422Y-91549422D03*
X205000000Y-106000000D03*
X241620000Y-109000000D03*
X144000000Y-96000000D03*
X131000000Y-103500000D03*
X151000000Y-92500000D03*
X207000000Y-96500000D03*
X221500000Y-100500000D03*
X241620000Y-94500000D03*
X142500000Y-102000000D03*
X133000000Y-96500000D03*
X141000000Y-106500000D03*
X136000000Y-96000000D03*
%TO.N,Net-(SW2-C)*%
X236500000Y-95000000D03*
%TO.N,Net-(SW2-A)*%
X235000000Y-95000000D03*
%TO.N,Net-(SW3-A)*%
X231500000Y-96500000D03*
%TD*%
D43*
%TO.N,GND*%
X145600000Y-102500000D02*
X147100000Y-101000000D01*
X145500000Y-102500000D02*
X145600000Y-102500000D01*
D44*
X241620000Y-109000000D02*
X241620000Y-110350000D01*
X241620000Y-94500000D02*
X241620000Y-93650000D01*
%TO.N,Net-(U1-STAT1{slash}~{LBO})*%
X134202082Y-109000000D02*
X165764582Y-109000000D01*
X130875000Y-105672918D02*
X134202082Y-109000000D01*
X130875000Y-105312500D02*
X130875000Y-105672918D01*
D45*
%TO.N,GND*%
X147100000Y-101000000D02*
X147000000Y-101000000D01*
D43*
X144409107Y-103590893D02*
X145500000Y-102500000D01*
X144409107Y-103690893D02*
X144409107Y-103590893D01*
D45*
%TO.N,Net-(R12-Pad2)*%
X130000000Y-108325000D02*
X128500000Y-108325000D01*
%TO.N,GND*%
X129522000Y-104728000D02*
X130875000Y-103375000D01*
X129522000Y-106197000D02*
X129522000Y-104728000D01*
X130000000Y-106675000D02*
X129522000Y-106197000D01*
D43*
%TO.N,/3V3*%
X133000000Y-92359440D02*
X133000000Y-91500000D01*
X130747000Y-93753000D02*
X131472000Y-93028000D01*
X127597000Y-97500000D02*
X127597000Y-103347000D01*
X127597000Y-97500000D02*
X130747000Y-94350000D01*
X130747000Y-94350000D02*
X130747000Y-93753000D01*
X131472000Y-93028000D02*
X132331440Y-93028000D01*
X132331440Y-93028000D02*
X133000000Y-92359440D01*
D45*
%TO.N,Net-(R12-Pad2)*%
X128371166Y-109671166D02*
X129200000Y-110500000D01*
X128371166Y-108087754D02*
X128371166Y-109671166D01*
%TO.N,GND*%
X131375000Y-102875000D02*
X130875000Y-103375000D01*
X131375000Y-101437500D02*
X131375000Y-102875000D01*
D43*
%TO.N,/3V3*%
X127597000Y-103347000D02*
X128125000Y-103875000D01*
X128125000Y-103875000D02*
X128937500Y-103875000D01*
D44*
%TO.N,Net-(U1-VPCC)*%
X128000000Y-102297918D02*
X128577082Y-102875000D01*
X128577082Y-102875000D02*
X128937500Y-102875000D01*
X128000000Y-100500000D02*
X128000000Y-102297918D01*
X128820000Y-99680000D02*
X128000000Y-100500000D01*
X128820000Y-99499126D02*
X128820000Y-99680000D01*
D43*
%TO.N,/MCP OUT 5V*%
X129500000Y-100500000D02*
X129875000Y-100875000D01*
X129500000Y-99967584D02*
X129500000Y-100500000D01*
X129497000Y-99964584D02*
X129500000Y-99967584D01*
X129497000Y-99035416D02*
X129497000Y-99964584D01*
X129500000Y-99032416D02*
X129497000Y-99035416D01*
X129500000Y-96875000D02*
X129500000Y-99032416D01*
D45*
%TO.N,Net-(U1-THERM)*%
X128371166Y-104941334D02*
X128937500Y-104375000D01*
X128371166Y-106437754D02*
X128371166Y-104941334D01*
D43*
%TO.N,GND*%
X141825000Y-99325000D02*
X142500000Y-100000000D01*
X141000000Y-99325000D02*
X141825000Y-99325000D01*
X139500000Y-99325000D02*
X141000000Y-99325000D01*
%TO.N,Net-(J1-CC1)*%
X141181084Y-97493916D02*
X141181084Y-94874269D01*
X141000000Y-97675000D02*
X141181084Y-97493916D01*
%TO.N,Net-(J1-CC2)*%
X138181084Y-96356084D02*
X138181084Y-94874269D01*
X139500000Y-97675000D02*
X138181084Y-96356084D01*
D46*
%TO.N,/3V3*%
X153128000Y-103072000D02*
X152000000Y-104200000D01*
X153128000Y-96875741D02*
X153128000Y-103072000D01*
X152500000Y-96247741D02*
X153128000Y-96875741D01*
X152500000Y-95000000D02*
X152500000Y-96247741D01*
D44*
%TO.N,/MCP OUT 5V*%
X129875000Y-101437500D02*
X129875000Y-100875000D01*
%TO.N,Net-(C2-Pad1)*%
X130375000Y-99650000D02*
X130375000Y-101437500D01*
X130225000Y-99500000D02*
X130375000Y-99650000D01*
%TO.N,Net-(Q1-D)*%
X133875000Y-102875000D02*
X132812500Y-102875000D01*
X134000000Y-103000000D02*
X133875000Y-102875000D01*
X39560500Y-103000000D02*
X44000000Y-103000000D01*
X39400000Y-102839500D02*
X39560500Y-103000000D01*
X39400000Y-100952000D02*
X40012500Y-100339500D01*
X39400000Y-102839500D02*
X39400000Y-100952000D01*
%TO.N,/BAT+*%
X49660500Y-101889500D02*
X51050000Y-100500000D01*
X41275000Y-101889500D02*
X49660500Y-101889500D01*
%TO.N,GND*%
X45817142Y-101182858D02*
X46000000Y-101000000D01*
X43103468Y-101182858D02*
X45817142Y-101182858D01*
X128937500Y-103375000D02*
X130875000Y-103375000D01*
%TO.N,Net-(Q1-D)*%
X131875000Y-101437500D02*
X132812500Y-102375000D01*
%TO.N,/GATE*%
X38337500Y-103088584D02*
X38337500Y-98839500D01*
X39038416Y-103789500D02*
X38337500Y-103088584D01*
X41275000Y-103789500D02*
X39038416Y-103789500D01*
D43*
%TO.N,/MCP OUT 5V SWITCHED*%
X128015406Y-92450000D02*
X127051431Y-91486025D01*
X129362500Y-92450000D02*
X128015406Y-92450000D01*
X127500000Y-90500000D02*
X129312500Y-90500000D01*
X127051431Y-91486025D02*
X127051431Y-90948569D01*
X127051431Y-90948569D02*
X127500000Y-90500000D01*
D46*
%TO.N,/3V3*%
X153925000Y-104200000D02*
X154000000Y-104275000D01*
X152000000Y-104200000D02*
X153925000Y-104200000D01*
D44*
%TO.N,GND*%
X154000000Y-101500000D02*
X154000000Y-102725000D01*
D43*
%TO.N,/VBUS P*%
X134825000Y-102550000D02*
X136500000Y-102550000D01*
X131775000Y-99500000D02*
X134825000Y-102550000D01*
%TO.N,Net-(U3-GPIO3{slash}TOUCH3{slash}ADC1_CH2)*%
X41662500Y-99337500D02*
X41662500Y-100339500D01*
X40500000Y-98175000D02*
X41662500Y-99337500D01*
X40500000Y-98162500D02*
X40500000Y-98175000D01*
D44*
%TO.N,GND*%
X129875000Y-104375000D02*
X130875000Y-103375000D01*
D46*
%TO.N,/3V3*%
X131637500Y-90550000D02*
X132050000Y-90550000D01*
D43*
X132050000Y-90550000D02*
X133000000Y-91500000D01*
D44*
%TO.N,/Led DIN*%
X148754834Y-106168422D02*
X150168422Y-106168422D01*
X239000000Y-106500000D02*
X239080000Y-106580000D01*
X239080000Y-106580000D02*
X239080000Y-110350000D01*
X150168422Y-106168422D02*
X150500000Y-106500000D01*
%TO.N,Net-(U1-VPCC)*%
X133000000Y-99125000D02*
X134075000Y-99125000D01*
X134075000Y-99125000D02*
X134450000Y-99500000D01*
%TO.N,/BOOT*%
X225110000Y-110350000D02*
X223850000Y-110350000D01*
X208500000Y-96350000D02*
X214500000Y-96350000D01*
X223850000Y-110350000D02*
X214500000Y-101000000D01*
X214500000Y-101000000D02*
X214500000Y-96350000D01*
%TO.N,Net-(Push1-Pad1)*%
X207000000Y-93000000D02*
X207400000Y-92600000D01*
X207000000Y-93675000D02*
X207000000Y-93000000D01*
X207400000Y-92600000D02*
X208500000Y-92600000D01*
X208400000Y-92500000D02*
X208500000Y-92600000D01*
X208500000Y-92600000D02*
X214500000Y-92600000D01*
X208425000Y-92675000D02*
X208500000Y-92600000D01*
%TO.N,Net-(Push2-Pad1)*%
X208500000Y-104125000D02*
X214500000Y-104125000D01*
X208050000Y-103675000D02*
X208500000Y-104125000D01*
X206500000Y-103675000D02*
X208050000Y-103675000D01*
%TO.N,/RESET*%
X206500000Y-108275000D02*
X208100000Y-108275000D01*
X239080000Y-94920000D02*
X238500000Y-95500000D01*
X208100000Y-108275000D02*
X208500000Y-107875000D01*
X208500000Y-107875000D02*
X214500000Y-107875000D01*
X239080000Y-93650000D02*
X239080000Y-94920000D01*
X216375000Y-107875000D02*
X216500000Y-108000000D01*
X216500000Y-108000000D02*
X214625000Y-108000000D01*
X214625000Y-108000000D02*
X214500000Y-107875000D01*
%TO.N,Net-(U1-PROG1)*%
X135250000Y-104175000D02*
X133972918Y-104175000D01*
X133172918Y-103375000D02*
X132812500Y-103375000D01*
X133972918Y-104175000D02*
X133172918Y-103375000D01*
D45*
%TO.N,Net-(U1-PROG3)*%
X134101700Y-104803000D02*
X133173700Y-103875000D01*
X133173700Y-103875000D02*
X132812500Y-103875000D01*
X136750000Y-104175000D02*
X136122000Y-104803000D01*
X136122000Y-104803000D02*
X134101700Y-104803000D01*
D44*
%TO.N,Net-(U1-STAT1{slash}~{LBO})*%
X238000000Y-108500000D02*
X238000000Y-97000000D01*
X238000000Y-97000000D02*
X237810000Y-96810000D01*
D45*
X234675000Y-91500000D02*
X237500000Y-91500000D01*
D44*
X237810000Y-93350000D02*
X237810000Y-93650000D01*
D45*
X233175000Y-90000000D02*
X234675000Y-91500000D01*
D44*
X132750000Y-107750000D02*
X130875000Y-105875000D01*
X237810000Y-93135000D02*
X237810000Y-93650000D01*
X135250000Y-107750000D02*
X132750000Y-107750000D01*
D45*
X237500000Y-91500000D02*
X237810000Y-91810000D01*
X237810000Y-91810000D02*
X237810000Y-92850000D01*
D44*
X136500000Y-109000000D02*
X135250000Y-107750000D01*
X233175000Y-89000000D02*
X233175000Y-90000000D01*
X130875000Y-105875000D02*
X130875000Y-105312500D01*
X166764582Y-110000000D02*
X165764582Y-109000000D01*
X237810000Y-96810000D02*
X237810000Y-93650000D01*
%TO.N,Net-(U3-GPIO3{slash}TOUCH3{slash}ADC1_CH2)*%
X217825000Y-94675000D02*
X221500000Y-94675000D01*
X221500000Y-94675000D02*
X223800000Y-94675000D01*
X223800000Y-94675000D02*
X223860000Y-94615000D01*
X217000000Y-95500000D02*
X217825000Y-94675000D01*
D43*
%TO.N,/VBUS*%
X137000000Y-98981536D02*
X137000000Y-96500000D01*
X140755000Y-101050000D02*
X139958000Y-100253000D01*
X142550000Y-101050000D02*
X140755000Y-101050000D01*
D44*
X137000000Y-96500000D02*
X137531084Y-95968916D01*
X137531084Y-95968916D02*
X137531084Y-94874269D01*
D43*
X143178000Y-101678000D02*
X142550000Y-101050000D01*
X138271464Y-100253000D02*
X137000000Y-98981536D01*
D44*
X142331084Y-96331084D02*
X142500000Y-96500000D01*
D43*
X142508837Y-102950000D02*
X143178000Y-102280837D01*
X143178000Y-102280837D02*
X143178000Y-101678000D01*
X139958000Y-100253000D02*
X138271464Y-100253000D01*
D44*
X142331084Y-94874269D02*
X142331084Y-96331084D01*
D43*
X140755000Y-102950000D02*
X142508837Y-102950000D01*
%TO.N,Net-(U3-3V3)*%
X240500000Y-90775000D02*
X240500000Y-92700000D01*
D46*
X240500000Y-92700000D02*
X240350000Y-92850000D01*
D43*
%TO.N,/3V3*%
X234825000Y-89000000D02*
X236949870Y-89000000D01*
%TO.N,/GATE*%
X44162138Y-99514862D02*
X44837500Y-98839500D01*
X43288540Y-99514862D02*
X44162138Y-99514862D01*
D44*
%TO.N,/DATA+*%
X139181084Y-94874269D02*
X139181084Y-94025868D01*
X226380000Y-95000000D02*
X226380000Y-93650000D01*
X139434085Y-95702269D02*
X139928083Y-95702269D01*
X140181084Y-95449268D02*
X140181084Y-94874269D01*
X139181084Y-95449268D02*
X139434085Y-95702269D01*
X226380000Y-93160942D02*
X226380000Y-93650000D01*
X139181084Y-94874269D02*
X139181084Y-95449268D01*
X226380000Y-93350000D02*
X226380000Y-93650000D01*
X150000000Y-91500000D02*
X149850000Y-91650000D01*
X139928083Y-95702269D02*
X140181084Y-95449268D01*
X139181084Y-94025868D02*
X140999976Y-92206976D01*
X150000000Y-90450000D02*
X150000000Y-91500000D01*
%TO.N,/DATA-*%
X139681084Y-94874269D02*
X139681084Y-94299270D01*
X140681084Y-94299270D02*
X140681084Y-94874269D01*
X140681084Y-93905119D02*
X141533335Y-93052868D01*
X225209999Y-95093884D02*
X225110000Y-94993885D01*
X140681084Y-94874269D02*
X140681084Y-93905119D01*
D45*
X149000000Y-91500000D02*
X149150000Y-91650000D01*
D44*
X139934085Y-94046269D02*
X140428083Y-94046269D01*
X139692562Y-94307438D02*
X139692562Y-94938621D01*
X139681084Y-94299270D02*
X139934085Y-94046269D01*
D45*
X149000000Y-91051000D02*
X149000000Y-91500000D01*
D44*
X225110000Y-94993885D02*
X225110000Y-93650000D01*
X140428083Y-94046269D02*
X140681084Y-94299270D01*
%TO.N,/SHIELD*%
X134293815Y-93772000D02*
X134821084Y-94299269D01*
X134821084Y-90369269D02*
X145041084Y-90369269D01*
X131500000Y-94175000D02*
X134696815Y-94175000D01*
X134821084Y-90369269D02*
X134821084Y-94299269D01*
X134696815Y-94175000D02*
X134821084Y-94299269D01*
X145041084Y-94299269D02*
X145041084Y-90369269D01*
D43*
%TO.N,Net-(U6-ILIM)*%
X137500000Y-108000000D02*
X137500000Y-107175000D01*
X139500000Y-102000000D02*
X138245000Y-102000000D01*
X137500000Y-107175000D02*
X138175000Y-106500000D01*
%TO.N,Net-(C3-Pad1)*%
X136500000Y-101000000D02*
X136500000Y-99725000D01*
D44*
X136275000Y-99775000D02*
X136000000Y-99500000D01*
D43*
X136500000Y-99725000D02*
X136275000Y-99500000D01*
%TO.N,Net-(Q1-D)*%
X132812500Y-102875000D02*
X132812500Y-102375000D01*
D44*
%TO.N,Net-(C4-Pad2)*%
X221500000Y-97725000D02*
X221500000Y-96325000D01*
D43*
%TO.N,/MCP OUT 5V*%
X37775000Y-95500000D02*
X39500000Y-95500000D01*
X129875000Y-101437500D02*
X128937500Y-102375000D01*
D46*
%TO.N,/MCP OUT 5V SWITCHED*%
X129312500Y-90500000D02*
X129362500Y-90550000D01*
D43*
%TO.N,GND*%
X129362500Y-91500000D02*
X128098844Y-91500000D01*
D44*
X131875000Y-104375000D02*
X130875000Y-103375000D01*
X235556000Y-100900000D02*
X233900000Y-100900000D01*
X136742562Y-95257438D02*
X136742562Y-94938621D01*
D43*
X130375000Y-103875000D02*
X130875000Y-103375000D01*
D44*
X131375000Y-103875000D02*
X130875000Y-103375000D01*
X143142562Y-95198179D02*
X143142562Y-94938621D01*
X206500000Y-105325000D02*
X205675000Y-105325000D01*
X149500000Y-92500000D02*
X151000000Y-92500000D01*
X143131084Y-95131084D02*
X143131084Y-94874269D01*
X136000000Y-96000000D02*
X136731084Y-95268916D01*
X206500000Y-106725000D02*
X206500000Y-105325000D01*
X205675000Y-105325000D02*
X205000000Y-106000000D01*
X131500000Y-95825000D02*
X132247068Y-95825000D01*
X207000000Y-95325000D02*
X207000000Y-96500000D01*
X131375000Y-105312500D02*
X131375000Y-103875000D01*
D43*
X134262500Y-105825000D02*
X134175000Y-105825000D01*
X144409107Y-104845106D02*
X144409107Y-103690893D01*
X139825000Y-106500000D02*
X141000000Y-106500000D01*
D46*
X128098844Y-91500000D02*
X128049422Y-91549422D01*
D43*
X135250000Y-105825000D02*
X136750000Y-105825000D01*
D44*
X140755000Y-102000000D02*
X142500000Y-102000000D01*
X221500000Y-99275000D02*
X221500000Y-100500000D01*
D45*
X241620000Y-93650000D02*
X241620000Y-93620000D01*
D43*
X134175000Y-105825000D02*
X134000000Y-106000000D01*
D44*
X144000000Y-96000000D02*
X143131084Y-95131084D01*
X132247068Y-95825000D02*
X132325000Y-95825000D01*
X136731084Y-95268916D02*
X136731084Y-94874269D01*
D43*
X130875000Y-103375000D02*
X131000000Y-103500000D01*
D45*
X235100000Y-100900000D02*
X233900000Y-100900000D01*
D44*
X131875000Y-105312500D02*
X131875000Y-104375000D01*
D43*
X132812500Y-104375000D02*
X131875000Y-104375000D01*
D46*
X241620000Y-110000000D02*
X241620000Y-110350000D01*
D44*
X132325000Y-95825000D02*
X133000000Y-96500000D01*
D45*
X241620000Y-93620000D02*
X241500000Y-93500000D01*
D43*
X135250000Y-105825000D02*
X134262500Y-105825000D01*
D44*
X235270000Y-99530000D02*
X233900000Y-100900000D01*
D43*
%TO.N,Net-(C2-Pad1)*%
X130375000Y-101437500D02*
X130875000Y-101437500D01*
%TO.N,/VBUS P*%
X136900000Y-102950000D02*
X136500000Y-102550000D01*
X140140106Y-104845106D02*
X141509107Y-104845106D01*
X138245000Y-102950000D02*
X140140106Y-104845106D01*
X138245000Y-102950000D02*
X136900000Y-102950000D01*
%TO.N,Net-(SW1-A)*%
X36225000Y-95500000D02*
X36225000Y-91575000D01*
D44*
%TO.N,Net-(SW2-C)*%
X236500000Y-95000000D02*
X236500000Y-92890000D01*
X236500000Y-92890000D02*
X236540000Y-92850000D01*
X236540000Y-94960000D02*
X236500000Y-95000000D01*
D43*
%TO.N,Net-(SW2-A)*%
X235000000Y-93120000D02*
X235270000Y-92850000D01*
X235000000Y-95000000D02*
X235000000Y-93120000D01*
D44*
%TO.N,Net-(SW3-A)*%
X234000000Y-94000000D02*
X234000000Y-93650000D01*
X231500000Y-96500000D02*
X234000000Y-94000000D01*
%TO.N,Net-(D1-DIN)*%
X147100000Y-106163588D02*
X147104834Y-106168422D01*
X147100000Y-104200000D02*
X147100000Y-106163588D01*
D43*
%TO.N,/3V3*%
X236949870Y-89000000D02*
X239000000Y-89000000D01*
X239225000Y-89225000D02*
X240500000Y-89225000D01*
X239000000Y-89000000D02*
X239225000Y-89225000D01*
%TD*%
M02*
