%TF.GenerationSoftware,KiCad,Pcbnew,9.0.7*%
%TF.CreationDate,2026-01-06T23:00:18-05:00*%
%TF.ProjectId,esp32-pedal-pcb,65737033-322d-4706-9564-616c2d706362,rev?*%
%TF.SameCoordinates,Original*%
%TF.FileFunction,Copper,L3,Inr*%
%TF.FilePolarity,Positive*%
%FSLAX46Y46*%
G04 Gerber Fmt 4.6, Leading zero omitted, Abs format (unit mm)*
G04 Created by KiCad (PCBNEW 9.0.7) date 2026-01-06 23:00:18*
%MOMM*%
%LPD*%
G01*
G04 APERTURE LIST*
G04 Aperture macros list*
%AMRoundRect*
0 Rectangle with rounded corners*
0 $1 Rounding radius*
0 $2 $3 $4 $5 $6 $7 $8 $9 X,Y pos of 4 corners*
0 Add a 4 corners polygon primitive as box body*
4,1,4,$2,$3,$4,$5,$6,$7,$8,$9,$2,$3,0*
0 Add four circle primitives for the rounded corners*
1,1,$1+$1,$2,$3*
1,1,$1+$1,$4,$5*
1,1,$1+$1,$6,$7*
1,1,$1+$1,$8,$9*
0 Add four rect primitives between the rounded corners*
20,1,$1+$1,$2,$3,$4,$5,0*
20,1,$1+$1,$4,$5,$6,$7,0*
20,1,$1+$1,$6,$7,$8,$9,0*
20,1,$1+$1,$8,$9,$2,$3,0*%
G04 Aperture macros list end*
%TA.AperFunction,ComponentPad*%
%ADD10RoundRect,0.250000X-0.550000X-0.550000X0.550000X-0.550000X0.550000X0.550000X-0.550000X0.550000X0*%
%TD*%
%TA.AperFunction,ComponentPad*%
%ADD11C,1.600000*%
%TD*%
%TA.AperFunction,HeatsinkPad*%
%ADD12C,0.600000*%
%TD*%
%TA.AperFunction,ComponentPad*%
%ADD13RoundRect,0.250000X0.550000X0.550000X-0.550000X0.550000X-0.550000X-0.550000X0.550000X-0.550000X0*%
%TD*%
%TA.AperFunction,ComponentPad*%
%ADD14C,3.000000*%
%TD*%
%TA.AperFunction,ViaPad*%
%ADD15C,0.800000*%
%TD*%
G04 APERTURE END LIST*
D10*
%TO.N,Net-(R12-Pad2)*%
%TO.C,TH1*%
X129200000Y-110500000D03*
D11*
%TO.N,GND*%
X132800000Y-110500000D03*
%TD*%
D12*
%TO.N,GND*%
%TO.C,U3*%
X234600000Y-98700000D03*
X233200000Y-98700000D03*
X235300000Y-99400000D03*
X233900000Y-99400000D03*
X232500000Y-99400000D03*
X234600000Y-100100000D03*
X233200000Y-100100000D03*
X235300000Y-100800000D03*
X233900000Y-100800000D03*
X232500000Y-100800000D03*
X234600000Y-101500000D03*
X233200000Y-101500000D03*
%TD*%
D13*
%TO.N,Net-(SW3-A)*%
%TO.C,SW3*%
X145500000Y-110500000D03*
D11*
%TO.N,GND*%
X141900000Y-110500000D03*
%TD*%
D10*
%TO.N,Net-(SW1-A)*%
%TO.C,SW1*%
X36800000Y-91000000D03*
D11*
%TO.N,/MCP OUT 5V SWITCHED*%
X40400000Y-91000000D03*
%TD*%
D10*
%TO.N,Net-(SW2-A)*%
%TO.C,SW2*%
X223900000Y-89500000D03*
D11*
%TO.N,GND*%
X227500000Y-89500000D03*
%TO.N,Net-(SW2-C)*%
X231100000Y-89500000D03*
%TD*%
D14*
%TO.N,GND*%
%TO.C,BT1*%
X123950000Y-100500000D03*
%TD*%
D15*
%TO.N,GND*%
X145500000Y-102500000D03*
X142500000Y-100000000D03*
%TO.N,Net-(Q1-D)*%
X134000000Y-103000000D03*
X44000000Y-103000000D03*
%TO.N,GND*%
X46000000Y-101000000D03*
%TO.N,/Led DIN*%
X150500000Y-106500000D03*
%TO.N,Net-(U1-VPCC)*%
X133000000Y-99125000D03*
X128820000Y-99499126D03*
%TO.N,Net-(U1-STAT1{slash}~{LBO})*%
X238000000Y-108500000D03*
%TO.N,Net-(U3-GPIO3{slash}TOUCH3{slash}ADC1_CH2)*%
X217000000Y-95500000D03*
X40500000Y-98162500D03*
%TO.N,/VBUS*%
X142500000Y-96500000D03*
X137000000Y-96500000D03*
%TO.N,/3V3*%
X133000000Y-91500000D03*
X236949870Y-89000000D03*
X152500000Y-95000000D03*
%TO.N,/GATE*%
X38337500Y-98839500D03*
X44837500Y-98839500D03*
%TO.N,/DATA+*%
X150000000Y-90451000D03*
%TO.N,/DATA-*%
X149000000Y-91051000D03*
X225209999Y-95093884D03*
%TO.N,Net-(U6-ILIM)*%
X137500000Y-108000000D03*
X139500000Y-102000000D03*
%TO.N,/MCP OUT 5V SWITCHED*%
X127051431Y-91486025D03*
%TO.N,/MCP OUT 5V*%
X129500000Y-96875000D03*
X39500000Y-95500000D03*
%TO.N,GND*%
X154000000Y-101500000D03*
X134000000Y-106000000D03*
X128049422Y-91549422D03*
X205000000Y-106000000D03*
X241620000Y-109000000D03*
X144000000Y-96000000D03*
X131000000Y-103500000D03*
X151000000Y-92500000D03*
X207000000Y-96500000D03*
X221500000Y-100500000D03*
X241620000Y-94500000D03*
X142500000Y-102000000D03*
X133000000Y-96500000D03*
X141000000Y-106500000D03*
X136000000Y-96000000D03*
%TO.N,Net-(SW2-C)*%
X236500000Y-95000000D03*
%TO.N,Net-(SW2-A)*%
X235000000Y-95000000D03*
%TO.N,Net-(SW3-A)*%
X231500000Y-96500000D03*
%TD*%
%TA.AperFunction,Conductor*%
%TO.N,GND*%
G36*
X223129559Y-88019685D02*
G01*
X223175314Y-88072489D01*
X223185258Y-88141647D01*
X223156233Y-88205203D01*
X223101526Y-88241705D01*
X223030669Y-88265185D01*
X223030666Y-88265186D01*
X223030663Y-88265187D01*
X222881342Y-88357289D01*
X222757289Y-88481342D01*
X222665187Y-88630663D01*
X222665186Y-88630666D01*
X222610001Y-88797203D01*
X222610001Y-88797204D01*
X222610000Y-88797204D01*
X222599500Y-88899983D01*
X222599500Y-90100001D01*
X222599501Y-90100018D01*
X222610000Y-90202796D01*
X222610001Y-90202799D01*
X222665185Y-90369331D01*
X222665187Y-90369336D01*
X222700069Y-90425888D01*
X222757288Y-90518656D01*
X222881344Y-90642712D01*
X223030666Y-90734814D01*
X223197203Y-90789999D01*
X223299991Y-90800500D01*
X224500008Y-90800499D01*
X224602797Y-90789999D01*
X224769334Y-90734814D01*
X224918656Y-90642712D01*
X224981894Y-90579474D01*
X226774076Y-90579474D01*
X226818650Y-90611859D01*
X227000968Y-90704755D01*
X227195582Y-90767990D01*
X227397683Y-90800000D01*
X227602317Y-90800000D01*
X227804417Y-90767990D01*
X227999031Y-90704755D01*
X228181349Y-90611859D01*
X228225921Y-90579474D01*
X227500000Y-89853553D01*
X226774076Y-90579474D01*
X224981894Y-90579474D01*
X225042712Y-90518656D01*
X225134814Y-90369334D01*
X225189999Y-90202797D01*
X225200500Y-90100009D01*
X225200499Y-89397682D01*
X226200000Y-89397682D01*
X226200000Y-89602317D01*
X226232009Y-89804417D01*
X226295244Y-89999031D01*
X226388141Y-90181350D01*
X226388147Y-90181359D01*
X226420523Y-90225921D01*
X226420524Y-90225922D01*
X227146446Y-89500001D01*
X227146446Y-89499999D01*
X227106951Y-89460504D01*
X227200000Y-89460504D01*
X227200000Y-89539496D01*
X227220444Y-89615796D01*
X227259940Y-89684205D01*
X227315795Y-89740060D01*
X227384204Y-89779556D01*
X227460504Y-89800000D01*
X227539496Y-89800000D01*
X227615796Y-89779556D01*
X227684205Y-89740060D01*
X227740060Y-89684205D01*
X227779556Y-89615796D01*
X227800000Y-89539496D01*
X227800000Y-89499999D01*
X227853553Y-89499999D01*
X227853553Y-89500000D01*
X228579474Y-90225921D01*
X228611859Y-90181349D01*
X228704755Y-89999031D01*
X228767990Y-89804417D01*
X228800000Y-89602317D01*
X228800000Y-89397682D01*
X228767990Y-89195582D01*
X228704755Y-89000968D01*
X228611859Y-88818650D01*
X228579474Y-88774077D01*
X228579474Y-88774076D01*
X227853553Y-89499999D01*
X227800000Y-89499999D01*
X227800000Y-89460504D01*
X227779556Y-89384204D01*
X227740060Y-89315795D01*
X227684205Y-89259940D01*
X227615796Y-89220444D01*
X227539496Y-89200000D01*
X227460504Y-89200000D01*
X227384204Y-89220444D01*
X227315795Y-89259940D01*
X227259940Y-89315795D01*
X227220444Y-89384204D01*
X227200000Y-89460504D01*
X227106951Y-89460504D01*
X226420524Y-88774077D01*
X226420523Y-88774077D01*
X226388143Y-88818644D01*
X226295244Y-89000968D01*
X226232009Y-89195582D01*
X226200000Y-89397682D01*
X225200499Y-89397682D01*
X225200499Y-88899992D01*
X225189999Y-88797203D01*
X225134814Y-88630666D01*
X225042712Y-88481344D01*
X224918656Y-88357288D01*
X224769334Y-88265186D01*
X224698473Y-88241705D01*
X224641030Y-88201933D01*
X224614207Y-88137417D01*
X224626522Y-88068642D01*
X224674065Y-88017442D01*
X224737479Y-88000000D01*
X227126730Y-88000000D01*
X227193769Y-88019685D01*
X227239524Y-88072489D01*
X227249468Y-88141647D01*
X227220443Y-88205203D01*
X227165049Y-88241931D01*
X227000968Y-88295244D01*
X226818644Y-88388143D01*
X226774077Y-88420523D01*
X226774077Y-88420524D01*
X227500000Y-89146446D01*
X228225922Y-88420524D01*
X228225921Y-88420523D01*
X228181359Y-88388147D01*
X228181350Y-88388141D01*
X227999031Y-88295244D01*
X227834951Y-88241931D01*
X227777276Y-88202493D01*
X227750078Y-88138134D01*
X227761993Y-88069288D01*
X227809237Y-88017812D01*
X227873270Y-88000000D01*
X230725114Y-88000000D01*
X230792153Y-88019685D01*
X230837908Y-88072489D01*
X230847852Y-88141647D01*
X230818827Y-88205203D01*
X230763433Y-88241931D01*
X230600776Y-88294781D01*
X230418386Y-88387715D01*
X230252786Y-88508028D01*
X230108028Y-88652786D01*
X229987715Y-88818386D01*
X229894781Y-89000776D01*
X229831522Y-89195465D01*
X229799500Y-89397648D01*
X229799500Y-89602351D01*
X229831522Y-89804534D01*
X229894781Y-89999223D01*
X229946135Y-90100009D01*
X229987585Y-90181359D01*
X229987715Y-90181613D01*
X230108028Y-90347213D01*
X230252786Y-90491971D01*
X230373226Y-90579474D01*
X230418390Y-90612287D01*
X230534607Y-90671503D01*
X230600776Y-90705218D01*
X230600778Y-90705218D01*
X230600781Y-90705220D01*
X230691856Y-90734812D01*
X230795465Y-90768477D01*
X230896557Y-90784488D01*
X230997648Y-90800500D01*
X230997649Y-90800500D01*
X231202351Y-90800500D01*
X231202352Y-90800500D01*
X231404534Y-90768477D01*
X231599219Y-90705220D01*
X231781610Y-90612287D01*
X231910482Y-90518657D01*
X231947213Y-90491971D01*
X231947215Y-90491968D01*
X231947219Y-90491966D01*
X232091966Y-90347219D01*
X232091968Y-90347215D01*
X232091971Y-90347213D01*
X232160432Y-90252983D01*
X232212287Y-90181610D01*
X232305220Y-89999219D01*
X232368477Y-89804534D01*
X232400500Y-89602352D01*
X232400500Y-89397648D01*
X232369195Y-89200000D01*
X232368477Y-89195465D01*
X232333784Y-89088691D01*
X232305220Y-89000781D01*
X232305218Y-89000778D01*
X232305218Y-89000776D01*
X232271503Y-88934607D01*
X232212287Y-88818390D01*
X232180092Y-88774077D01*
X232091971Y-88652786D01*
X231947213Y-88508028D01*
X231781613Y-88387715D01*
X231781612Y-88387714D01*
X231781610Y-88387713D01*
X231721898Y-88357288D01*
X231599223Y-88294781D01*
X231436567Y-88241931D01*
X231378892Y-88202493D01*
X231351694Y-88138134D01*
X231363609Y-88069288D01*
X231410853Y-88017812D01*
X231474886Y-88000000D01*
X236416844Y-88000000D01*
X236483883Y-88019685D01*
X236529638Y-88072489D01*
X236539582Y-88141647D01*
X236510557Y-88205203D01*
X236485735Y-88227102D01*
X236375835Y-88300535D01*
X236375831Y-88300538D01*
X236250408Y-88425961D01*
X236250405Y-88425965D01*
X236151860Y-88573446D01*
X236151853Y-88573459D01*
X236083976Y-88737332D01*
X236083973Y-88737341D01*
X236049370Y-88911304D01*
X236049370Y-89088695D01*
X236083973Y-89262658D01*
X236083976Y-89262667D01*
X236151853Y-89426540D01*
X236151860Y-89426553D01*
X236250405Y-89574034D01*
X236250408Y-89574038D01*
X236375831Y-89699461D01*
X236375835Y-89699464D01*
X236523316Y-89798009D01*
X236523329Y-89798016D01*
X236646233Y-89848923D01*
X236687204Y-89865894D01*
X236687206Y-89865894D01*
X236687211Y-89865896D01*
X236861174Y-89900499D01*
X236861177Y-89900500D01*
X236861179Y-89900500D01*
X237038563Y-89900500D01*
X237038564Y-89900499D01*
X237102845Y-89887713D01*
X237212528Y-89865896D01*
X237212531Y-89865894D01*
X237212536Y-89865894D01*
X237376417Y-89798013D01*
X237523905Y-89699464D01*
X237649334Y-89574035D01*
X237747883Y-89426547D01*
X237815764Y-89262666D01*
X237816307Y-89259940D01*
X237850369Y-89088695D01*
X237850370Y-89088693D01*
X237850370Y-88911306D01*
X237850369Y-88911304D01*
X237815766Y-88737341D01*
X237815763Y-88737332D01*
X237747886Y-88573459D01*
X237747879Y-88573446D01*
X237649334Y-88425965D01*
X237649331Y-88425961D01*
X237523908Y-88300538D01*
X237523904Y-88300535D01*
X237414005Y-88227102D01*
X237369200Y-88173489D01*
X237360493Y-88104164D01*
X237390648Y-88041137D01*
X237450091Y-88004418D01*
X237482896Y-88000000D01*
X242876000Y-88000000D01*
X242943039Y-88019685D01*
X242988794Y-88072489D01*
X243000000Y-88124000D01*
X243000000Y-111875701D01*
X242980315Y-111942740D01*
X242927511Y-111988495D01*
X242875703Y-111999701D01*
X146691389Y-111769043D01*
X146624397Y-111749197D01*
X146578768Y-111696284D01*
X146568991Y-111627102D01*
X146598168Y-111563616D01*
X146603992Y-111557376D01*
X146642712Y-111518656D01*
X146734814Y-111369334D01*
X146789999Y-111202797D01*
X146800500Y-111100009D01*
X146800499Y-110068995D01*
X166064081Y-110068995D01*
X166091000Y-110204322D01*
X166091003Y-110204332D01*
X166143803Y-110331804D01*
X166143810Y-110331817D01*
X166220467Y-110446541D01*
X166220470Y-110446545D01*
X166318036Y-110544111D01*
X166318040Y-110544114D01*
X166432764Y-110620771D01*
X166432777Y-110620778D01*
X166560249Y-110673578D01*
X166560254Y-110673580D01*
X166560258Y-110673580D01*
X166560259Y-110673581D01*
X166695586Y-110700500D01*
X166695589Y-110700500D01*
X166833577Y-110700500D01*
X166924623Y-110682389D01*
X166968910Y-110673580D01*
X167096393Y-110620775D01*
X167211124Y-110544114D01*
X167308696Y-110446542D01*
X167385357Y-110331811D01*
X167438162Y-110204328D01*
X167465082Y-110068993D01*
X167465082Y-109931007D01*
X167465082Y-109931004D01*
X167438163Y-109795677D01*
X167438162Y-109795676D01*
X167438162Y-109795672D01*
X167429217Y-109774076D01*
X167385360Y-109668195D01*
X167385353Y-109668182D01*
X167308696Y-109553458D01*
X167308693Y-109553454D01*
X167211127Y-109455888D01*
X167211123Y-109455885D01*
X167096399Y-109379228D01*
X167096386Y-109379221D01*
X166968914Y-109326421D01*
X166968904Y-109326418D01*
X166833577Y-109299500D01*
X166833575Y-109299500D01*
X166695589Y-109299500D01*
X166695587Y-109299500D01*
X166560259Y-109326418D01*
X166560249Y-109326421D01*
X166432777Y-109379221D01*
X166432764Y-109379228D01*
X166318040Y-109455885D01*
X166318036Y-109455888D01*
X166220470Y-109553454D01*
X166220467Y-109553458D01*
X166143810Y-109668182D01*
X166143803Y-109668195D01*
X166091003Y-109795667D01*
X166091000Y-109795677D01*
X166064082Y-109931004D01*
X166064082Y-109931007D01*
X166064082Y-110068993D01*
X166064082Y-110068995D01*
X166064081Y-110068995D01*
X146800499Y-110068995D01*
X146800499Y-109899992D01*
X146789999Y-109797203D01*
X146734814Y-109630666D01*
X146642712Y-109481344D01*
X146518656Y-109357288D01*
X146369334Y-109265186D01*
X146202797Y-109210001D01*
X146202795Y-109210000D01*
X146100010Y-109199500D01*
X144899998Y-109199500D01*
X144899981Y-109199501D01*
X144797203Y-109210000D01*
X144797200Y-109210001D01*
X144630668Y-109265185D01*
X144630663Y-109265187D01*
X144481342Y-109357289D01*
X144357289Y-109481342D01*
X144265187Y-109630663D01*
X144265186Y-109630666D01*
X144210001Y-109797203D01*
X144210001Y-109797204D01*
X144210000Y-109797204D01*
X144199500Y-109899983D01*
X144199500Y-111100001D01*
X144199501Y-111100018D01*
X144210000Y-111202796D01*
X144210001Y-111202799D01*
X144265185Y-111369331D01*
X144265186Y-111369334D01*
X144333722Y-111480450D01*
X144357289Y-111518657D01*
X144390265Y-111551633D01*
X144423750Y-111612956D01*
X144418766Y-111682648D01*
X144376894Y-111738581D01*
X144311430Y-111762998D01*
X144302287Y-111763314D01*
X142745592Y-111759581D01*
X142678600Y-111739735D01*
X142632971Y-111686822D01*
X142622271Y-111625851D01*
X142625921Y-111579473D01*
X141900000Y-110853553D01*
X141174076Y-111579474D01*
X141177407Y-111621795D01*
X141163042Y-111690172D01*
X141113991Y-111739929D01*
X141053492Y-111755523D01*
X133647310Y-111737762D01*
X133580318Y-111717916D01*
X133534689Y-111665003D01*
X133523989Y-111604033D01*
X133525921Y-111579473D01*
X132800000Y-110853553D01*
X132074076Y-111579474D01*
X132075689Y-111599970D01*
X132061324Y-111668347D01*
X132012272Y-111718103D01*
X131951774Y-111733697D01*
X130430384Y-111730048D01*
X130363392Y-111710202D01*
X130317763Y-111657289D01*
X130307986Y-111588107D01*
X130337163Y-111524621D01*
X130342607Y-111518788D01*
X130342705Y-111518662D01*
X130342712Y-111518656D01*
X130434814Y-111369334D01*
X130489999Y-111202797D01*
X130500500Y-111100009D01*
X130500499Y-110397682D01*
X131500000Y-110397682D01*
X131500000Y-110602317D01*
X131532009Y-110804417D01*
X131595244Y-110999031D01*
X131688141Y-111181350D01*
X131688147Y-111181359D01*
X131720523Y-111225921D01*
X131720524Y-111225922D01*
X132446446Y-110500001D01*
X132446446Y-110499999D01*
X132406951Y-110460504D01*
X132500000Y-110460504D01*
X132500000Y-110539496D01*
X132520444Y-110615796D01*
X132559940Y-110684205D01*
X132615795Y-110740060D01*
X132684204Y-110779556D01*
X132760504Y-110800000D01*
X132839496Y-110800000D01*
X132915796Y-110779556D01*
X132984205Y-110740060D01*
X133040060Y-110684205D01*
X133079556Y-110615796D01*
X133100000Y-110539496D01*
X133100000Y-110499999D01*
X133153553Y-110499999D01*
X133153553Y-110500000D01*
X133879474Y-111225921D01*
X133911859Y-111181349D01*
X134004755Y-110999031D01*
X134067990Y-110804417D01*
X134100000Y-110602317D01*
X134100000Y-110397682D01*
X140600000Y-110397682D01*
X140600000Y-110602317D01*
X140632009Y-110804417D01*
X140695244Y-110999031D01*
X140788141Y-111181350D01*
X140788147Y-111181359D01*
X140820523Y-111225921D01*
X140820524Y-111225922D01*
X141546446Y-110500001D01*
X141546446Y-110499999D01*
X141506951Y-110460504D01*
X141600000Y-110460504D01*
X141600000Y-110539496D01*
X141620444Y-110615796D01*
X141659940Y-110684205D01*
X141715795Y-110740060D01*
X141784204Y-110779556D01*
X141860504Y-110800000D01*
X141939496Y-110800000D01*
X142015796Y-110779556D01*
X142084205Y-110740060D01*
X142140060Y-110684205D01*
X142179556Y-110615796D01*
X142200000Y-110539496D01*
X142200000Y-110499999D01*
X142253553Y-110499999D01*
X142253553Y-110500000D01*
X142979474Y-111225921D01*
X143011859Y-111181349D01*
X143104755Y-110999031D01*
X143167990Y-110804417D01*
X143200000Y-110602317D01*
X143200000Y-110397682D01*
X143167990Y-110195582D01*
X143104755Y-110000968D01*
X143011859Y-109818650D01*
X142979474Y-109774077D01*
X142979474Y-109774076D01*
X142253553Y-110499999D01*
X142200000Y-110499999D01*
X142200000Y-110460504D01*
X142179556Y-110384204D01*
X142140060Y-110315795D01*
X142084205Y-110259940D01*
X142015796Y-110220444D01*
X141939496Y-110200000D01*
X141860504Y-110200000D01*
X141784204Y-110220444D01*
X141715795Y-110259940D01*
X141659940Y-110315795D01*
X141620444Y-110384204D01*
X141600000Y-110460504D01*
X141506951Y-110460504D01*
X140820524Y-109774077D01*
X140820523Y-109774077D01*
X140788143Y-109818644D01*
X140695244Y-110000968D01*
X140632009Y-110195582D01*
X140600000Y-110397682D01*
X134100000Y-110397682D01*
X134067990Y-110195582D01*
X134004755Y-110000968D01*
X133911859Y-109818650D01*
X133879474Y-109774077D01*
X133879474Y-109774076D01*
X133153553Y-110499999D01*
X133100000Y-110499999D01*
X133100000Y-110460504D01*
X133079556Y-110384204D01*
X133040060Y-110315795D01*
X132984205Y-110259940D01*
X132915796Y-110220444D01*
X132839496Y-110200000D01*
X132760504Y-110200000D01*
X132684204Y-110220444D01*
X132615795Y-110259940D01*
X132559940Y-110315795D01*
X132520444Y-110384204D01*
X132500000Y-110460504D01*
X132406951Y-110460504D01*
X131720524Y-109774077D01*
X131720523Y-109774077D01*
X131688143Y-109818644D01*
X131595244Y-110000968D01*
X131532009Y-110195582D01*
X131500000Y-110397682D01*
X130500499Y-110397682D01*
X130500499Y-109899992D01*
X130489999Y-109797203D01*
X130434814Y-109630666D01*
X130342712Y-109481344D01*
X130281891Y-109420523D01*
X132074077Y-109420523D01*
X132074077Y-109420524D01*
X132800000Y-110146446D01*
X133525922Y-109420524D01*
X133525921Y-109420523D01*
X141174077Y-109420523D01*
X141174077Y-109420524D01*
X141900000Y-110146446D01*
X142625922Y-109420524D01*
X142625921Y-109420523D01*
X142581359Y-109388147D01*
X142581350Y-109388141D01*
X142399031Y-109295244D01*
X142204417Y-109232009D01*
X142002317Y-109200000D01*
X141797683Y-109200000D01*
X141595582Y-109232009D01*
X141400968Y-109295244D01*
X141218644Y-109388143D01*
X141174077Y-109420523D01*
X133525921Y-109420523D01*
X133481359Y-109388147D01*
X133481350Y-109388141D01*
X133299031Y-109295244D01*
X133104417Y-109232009D01*
X132902317Y-109200000D01*
X132697683Y-109200000D01*
X132495582Y-109232009D01*
X132300968Y-109295244D01*
X132118644Y-109388143D01*
X132074077Y-109420523D01*
X130281891Y-109420523D01*
X130218656Y-109357288D01*
X130069334Y-109265186D01*
X129902797Y-109210001D01*
X129902795Y-109210000D01*
X129800010Y-109199500D01*
X128599998Y-109199500D01*
X128599981Y-109199501D01*
X128497203Y-109210000D01*
X128497200Y-109210001D01*
X128330668Y-109265185D01*
X128330663Y-109265187D01*
X128181342Y-109357289D01*
X128057289Y-109481342D01*
X127965187Y-109630663D01*
X127965186Y-109630666D01*
X127910001Y-109797203D01*
X127910001Y-109797204D01*
X127910000Y-109797204D01*
X127899500Y-109899983D01*
X127899500Y-111100001D01*
X127899501Y-111100018D01*
X127910000Y-111202796D01*
X127910001Y-111202799D01*
X127965185Y-111369331D01*
X127965186Y-111369334D01*
X128057288Y-111518656D01*
X128057289Y-111518657D01*
X128060897Y-111523219D01*
X128087038Y-111588014D01*
X128073999Y-111656657D01*
X128025920Y-111707353D01*
X127963335Y-111724132D01*
X34623703Y-111500296D01*
X34556711Y-111480450D01*
X34511082Y-111427537D01*
X34500000Y-111376296D01*
X34500000Y-107911304D01*
X136599500Y-107911304D01*
X136599500Y-108088695D01*
X136634103Y-108262658D01*
X136634106Y-108262667D01*
X136701983Y-108426540D01*
X136701990Y-108426553D01*
X136800535Y-108574034D01*
X136800538Y-108574038D01*
X136925961Y-108699461D01*
X136925965Y-108699464D01*
X137073446Y-108798009D01*
X137073459Y-108798016D01*
X137196363Y-108848923D01*
X137237334Y-108865894D01*
X137237336Y-108865894D01*
X137237341Y-108865896D01*
X137411304Y-108900499D01*
X137411307Y-108900500D01*
X137411309Y-108900500D01*
X137588693Y-108900500D01*
X137588694Y-108900499D01*
X137646682Y-108888964D01*
X137762658Y-108865896D01*
X137762661Y-108865894D01*
X137762666Y-108865894D01*
X137926547Y-108798013D01*
X138074035Y-108699464D01*
X138199464Y-108574035D01*
X138298013Y-108426547D01*
X138365894Y-108262666D01*
X138370932Y-108237341D01*
X138400499Y-108088695D01*
X138400500Y-108088693D01*
X138400500Y-108068995D01*
X215799499Y-108068995D01*
X215826418Y-108204322D01*
X215826421Y-108204332D01*
X215879221Y-108331804D01*
X215879228Y-108331817D01*
X215955885Y-108446541D01*
X215955888Y-108446545D01*
X216053454Y-108544111D01*
X216053458Y-108544114D01*
X216168182Y-108620771D01*
X216168195Y-108620778D01*
X216295667Y-108673578D01*
X216295672Y-108673580D01*
X216295676Y-108673580D01*
X216295677Y-108673581D01*
X216431004Y-108700500D01*
X216431007Y-108700500D01*
X216568995Y-108700500D01*
X216660041Y-108682389D01*
X216704328Y-108673580D01*
X216831811Y-108620775D01*
X216946542Y-108544114D01*
X217044114Y-108446542D01*
X217067659Y-108411304D01*
X237099500Y-108411304D01*
X237099500Y-108588695D01*
X237134103Y-108762658D01*
X237134106Y-108762667D01*
X237201983Y-108926540D01*
X237201990Y-108926553D01*
X237300535Y-109074034D01*
X237300538Y-109074038D01*
X237425961Y-109199461D01*
X237425965Y-109199464D01*
X237573446Y-109298009D01*
X237573459Y-109298016D01*
X237696363Y-109348923D01*
X237737334Y-109365894D01*
X237737336Y-109365894D01*
X237737341Y-109365896D01*
X237911304Y-109400499D01*
X237911307Y-109400500D01*
X237911309Y-109400500D01*
X238088693Y-109400500D01*
X238088694Y-109400499D01*
X238150793Y-109388147D01*
X238262658Y-109365896D01*
X238262661Y-109365894D01*
X238262666Y-109365894D01*
X238426547Y-109298013D01*
X238574035Y-109199464D01*
X238699464Y-109074035D01*
X238798013Y-108926547D01*
X238865894Y-108762666D01*
X238878467Y-108699461D01*
X238900499Y-108588695D01*
X238900500Y-108588693D01*
X238900500Y-108411306D01*
X238900499Y-108411304D01*
X238865896Y-108237341D01*
X238865893Y-108237332D01*
X238798016Y-108073459D01*
X238798009Y-108073446D01*
X238699464Y-107925965D01*
X238699461Y-107925961D01*
X238574038Y-107800538D01*
X238574034Y-107800535D01*
X238426553Y-107701990D01*
X238426540Y-107701983D01*
X238262667Y-107634106D01*
X238262658Y-107634103D01*
X238088694Y-107599500D01*
X238088691Y-107599500D01*
X237911309Y-107599500D01*
X237911306Y-107599500D01*
X237737341Y-107634103D01*
X237737332Y-107634106D01*
X237573459Y-107701983D01*
X237573446Y-107701990D01*
X237425965Y-107800535D01*
X237425961Y-107800538D01*
X237300538Y-107925961D01*
X237300535Y-107925965D01*
X237201990Y-108073446D01*
X237201983Y-108073459D01*
X237134106Y-108237332D01*
X237134103Y-108237341D01*
X237099500Y-108411304D01*
X217067659Y-108411304D01*
X217076865Y-108397526D01*
X217117759Y-108336326D01*
X217120772Y-108331815D01*
X217120775Y-108331811D01*
X217173580Y-108204328D01*
X217196581Y-108088695D01*
X217200500Y-108068995D01*
X217200500Y-107931004D01*
X217173581Y-107795677D01*
X217173580Y-107795676D01*
X217173580Y-107795672D01*
X217134773Y-107701983D01*
X217120778Y-107668195D01*
X217120771Y-107668182D01*
X217044114Y-107553458D01*
X217044111Y-107553454D01*
X216946545Y-107455888D01*
X216946541Y-107455885D01*
X216831817Y-107379228D01*
X216831804Y-107379221D01*
X216704332Y-107326421D01*
X216704322Y-107326418D01*
X216568995Y-107299500D01*
X216568993Y-107299500D01*
X216431007Y-107299500D01*
X216431005Y-107299500D01*
X216295677Y-107326418D01*
X216295667Y-107326421D01*
X216168195Y-107379221D01*
X216168182Y-107379228D01*
X216053458Y-107455885D01*
X216053454Y-107455888D01*
X215955888Y-107553454D01*
X215955885Y-107553458D01*
X215879228Y-107668182D01*
X215879221Y-107668195D01*
X215826421Y-107795667D01*
X215826418Y-107795677D01*
X215799500Y-107931004D01*
X215799500Y-107931007D01*
X215799500Y-108068993D01*
X215799500Y-108068995D01*
X215799499Y-108068995D01*
X138400500Y-108068995D01*
X138400500Y-107911306D01*
X138400499Y-107911304D01*
X138365896Y-107737341D01*
X138365893Y-107737332D01*
X138298016Y-107573459D01*
X138298009Y-107573446D01*
X138199464Y-107425965D01*
X138199461Y-107425961D01*
X138074038Y-107300538D01*
X138074034Y-107300535D01*
X137926553Y-107201990D01*
X137926540Y-107201983D01*
X137762667Y-107134106D01*
X137762658Y-107134103D01*
X137588694Y-107099500D01*
X137588691Y-107099500D01*
X137411309Y-107099500D01*
X137411306Y-107099500D01*
X137237341Y-107134103D01*
X137237332Y-107134106D01*
X137073459Y-107201983D01*
X137073446Y-107201990D01*
X136925965Y-107300535D01*
X136925961Y-107300538D01*
X136800538Y-107425961D01*
X136800535Y-107425965D01*
X136701990Y-107573446D01*
X136701983Y-107573459D01*
X136634106Y-107737332D01*
X136634103Y-107737341D01*
X136599500Y-107911304D01*
X34500000Y-107911304D01*
X34500000Y-106411304D01*
X149599500Y-106411304D01*
X149599500Y-106588695D01*
X149634103Y-106762658D01*
X149634106Y-106762667D01*
X149701983Y-106926540D01*
X149701990Y-106926553D01*
X149800535Y-107074034D01*
X149800538Y-107074038D01*
X149925961Y-107199461D01*
X149925965Y-107199464D01*
X150073446Y-107298009D01*
X150073459Y-107298016D01*
X150196363Y-107348923D01*
X150237334Y-107365894D01*
X150237336Y-107365894D01*
X150237341Y-107365896D01*
X150411304Y-107400499D01*
X150411307Y-107400500D01*
X150411309Y-107400500D01*
X150588693Y-107400500D01*
X150588694Y-107400499D01*
X150646682Y-107388964D01*
X150762658Y-107365896D01*
X150762661Y-107365894D01*
X150762666Y-107365894D01*
X150926547Y-107298013D01*
X151074035Y-107199464D01*
X151199464Y-107074035D01*
X151298013Y-106926547D01*
X151365894Y-106762666D01*
X151377498Y-106704332D01*
X151400499Y-106588695D01*
X151400500Y-106588693D01*
X151400500Y-106568995D01*
X238299499Y-106568995D01*
X238326418Y-106704322D01*
X238326421Y-106704332D01*
X238379221Y-106831804D01*
X238379228Y-106831817D01*
X238455885Y-106946541D01*
X238455888Y-106946545D01*
X238553454Y-107044111D01*
X238553458Y-107044114D01*
X238668182Y-107120771D01*
X238668195Y-107120778D01*
X238795667Y-107173578D01*
X238795672Y-107173580D01*
X238795676Y-107173580D01*
X238795677Y-107173581D01*
X238931004Y-107200500D01*
X238931007Y-107200500D01*
X239068995Y-107200500D01*
X239160041Y-107182389D01*
X239204328Y-107173580D01*
X239331811Y-107120775D01*
X239446542Y-107044114D01*
X239544114Y-106946542D01*
X239620775Y-106831811D01*
X239673580Y-106704328D01*
X239696581Y-106588695D01*
X239700500Y-106568995D01*
X239700500Y-106431004D01*
X239673581Y-106295677D01*
X239673580Y-106295676D01*
X239673580Y-106295672D01*
X239649415Y-106237332D01*
X239620778Y-106168195D01*
X239620771Y-106168182D01*
X239544114Y-106053458D01*
X239544111Y-106053454D01*
X239446545Y-105955888D01*
X239446541Y-105955885D01*
X239331817Y-105879228D01*
X239331804Y-105879221D01*
X239204332Y-105826421D01*
X239204322Y-105826418D01*
X239068995Y-105799500D01*
X239068993Y-105799500D01*
X238931007Y-105799500D01*
X238931005Y-105799500D01*
X238795677Y-105826418D01*
X238795667Y-105826421D01*
X238668195Y-105879221D01*
X238668182Y-105879228D01*
X238553458Y-105955885D01*
X238553454Y-105955888D01*
X238455888Y-106053454D01*
X238455885Y-106053458D01*
X238379228Y-106168182D01*
X238379221Y-106168195D01*
X238326421Y-106295667D01*
X238326418Y-106295677D01*
X238299500Y-106431004D01*
X238299500Y-106431007D01*
X238299500Y-106568993D01*
X238299500Y-106568995D01*
X238299499Y-106568995D01*
X151400500Y-106568995D01*
X151400500Y-106411306D01*
X151400499Y-106411304D01*
X151365896Y-106237341D01*
X151365893Y-106237332D01*
X151298016Y-106073459D01*
X151298009Y-106073446D01*
X151199464Y-105925965D01*
X151199461Y-105925961D01*
X151074038Y-105800538D01*
X151074034Y-105800535D01*
X150926553Y-105701990D01*
X150926540Y-105701983D01*
X150762667Y-105634106D01*
X150762658Y-105634103D01*
X150588694Y-105599500D01*
X150588691Y-105599500D01*
X150411309Y-105599500D01*
X150411306Y-105599500D01*
X150237341Y-105634103D01*
X150237332Y-105634106D01*
X150073459Y-105701983D01*
X150073446Y-105701990D01*
X149925965Y-105800535D01*
X149925961Y-105800538D01*
X149800538Y-105925961D01*
X149800535Y-105925965D01*
X149701990Y-106073446D01*
X149701983Y-106073459D01*
X149634106Y-106237332D01*
X149634103Y-106237341D01*
X149599500Y-106411304D01*
X34500000Y-106411304D01*
X34500000Y-102911304D01*
X43099500Y-102911304D01*
X43099500Y-103088695D01*
X43134103Y-103262658D01*
X43134106Y-103262667D01*
X43201983Y-103426540D01*
X43201990Y-103426553D01*
X43300535Y-103574034D01*
X43300538Y-103574038D01*
X43425961Y-103699461D01*
X43425965Y-103699464D01*
X43573446Y-103798009D01*
X43573459Y-103798016D01*
X43696363Y-103848923D01*
X43737334Y-103865894D01*
X43737336Y-103865894D01*
X43737341Y-103865896D01*
X43911304Y-103900499D01*
X43911307Y-103900500D01*
X43911309Y-103900500D01*
X44088693Y-103900500D01*
X44088694Y-103900499D01*
X44146682Y-103888964D01*
X44262658Y-103865896D01*
X44262661Y-103865894D01*
X44262666Y-103865894D01*
X44426547Y-103798013D01*
X44574035Y-103699464D01*
X44699464Y-103574035D01*
X44798013Y-103426547D01*
X44865894Y-103262666D01*
X44900500Y-103088691D01*
X44900500Y-102911309D01*
X44900500Y-102911306D01*
X44900499Y-102911304D01*
X133099500Y-102911304D01*
X133099500Y-103088695D01*
X133134103Y-103262658D01*
X133134106Y-103262667D01*
X133201983Y-103426540D01*
X133201990Y-103426553D01*
X133300535Y-103574034D01*
X133300538Y-103574038D01*
X133425961Y-103699461D01*
X133425965Y-103699464D01*
X133573446Y-103798009D01*
X133573459Y-103798016D01*
X133696363Y-103848923D01*
X133737334Y-103865894D01*
X133737336Y-103865894D01*
X133737341Y-103865896D01*
X133911304Y-103900499D01*
X133911307Y-103900500D01*
X133911309Y-103900500D01*
X134088693Y-103900500D01*
X134088694Y-103900499D01*
X134146682Y-103888964D01*
X134262658Y-103865896D01*
X134262661Y-103865894D01*
X134262666Y-103865894D01*
X134426547Y-103798013D01*
X134574035Y-103699464D01*
X134699464Y-103574035D01*
X134798013Y-103426547D01*
X134865894Y-103262666D01*
X134900500Y-103088691D01*
X134900500Y-102911309D01*
X134900500Y-102911306D01*
X134900499Y-102911304D01*
X134865896Y-102737341D01*
X134865893Y-102737332D01*
X134798016Y-102573459D01*
X134798009Y-102573446D01*
X134699464Y-102425965D01*
X134699461Y-102425961D01*
X134574038Y-102300538D01*
X134574034Y-102300535D01*
X134426553Y-102201990D01*
X134426540Y-102201983D01*
X134262667Y-102134106D01*
X134262658Y-102134103D01*
X134088694Y-102099500D01*
X134088691Y-102099500D01*
X133911309Y-102099500D01*
X133911306Y-102099500D01*
X133737341Y-102134103D01*
X133737332Y-102134106D01*
X133573459Y-102201983D01*
X133573446Y-102201990D01*
X133425965Y-102300535D01*
X133425961Y-102300538D01*
X133300538Y-102425961D01*
X133300535Y-102425965D01*
X133201990Y-102573446D01*
X133201983Y-102573459D01*
X133134106Y-102737332D01*
X133134103Y-102737341D01*
X133099500Y-102911304D01*
X44900499Y-102911304D01*
X44865896Y-102737341D01*
X44865893Y-102737332D01*
X44798016Y-102573459D01*
X44798009Y-102573446D01*
X44699464Y-102425965D01*
X44699461Y-102425961D01*
X44574038Y-102300538D01*
X44574034Y-102300535D01*
X44426553Y-102201990D01*
X44426540Y-102201983D01*
X44262667Y-102134106D01*
X44262658Y-102134103D01*
X44088694Y-102099500D01*
X44088691Y-102099500D01*
X43911309Y-102099500D01*
X43911306Y-102099500D01*
X43737341Y-102134103D01*
X43737332Y-102134106D01*
X43573459Y-102201983D01*
X43573446Y-102201990D01*
X43425965Y-102300535D01*
X43425961Y-102300538D01*
X43300538Y-102425961D01*
X43300535Y-102425965D01*
X43201990Y-102573446D01*
X43201983Y-102573459D01*
X43134106Y-102737332D01*
X43134103Y-102737341D01*
X43099500Y-102911304D01*
X34500000Y-102911304D01*
X34500000Y-100398823D01*
X49764500Y-100398823D01*
X49764500Y-100601176D01*
X49796152Y-100801022D01*
X49812721Y-100852014D01*
X49858680Y-100993461D01*
X49950542Y-101173749D01*
X50069476Y-101337447D01*
X50212553Y-101480524D01*
X50376251Y-101599458D01*
X50556539Y-101691320D01*
X50698150Y-101737332D01*
X50748977Y-101753847D01*
X50948824Y-101785500D01*
X50948829Y-101785500D01*
X51151176Y-101785500D01*
X51351022Y-101753847D01*
X51543461Y-101691320D01*
X51723749Y-101599458D01*
X51887447Y-101480524D01*
X52030524Y-101337447D01*
X52149458Y-101173749D01*
X52241320Y-100993461D01*
X52303847Y-100801022D01*
X52330761Y-100631094D01*
X52335500Y-100601176D01*
X52335500Y-100398826D01*
X52335263Y-100397330D01*
X52335263Y-100397328D01*
X52332834Y-100381995D01*
X57694500Y-100381995D01*
X57694500Y-100618004D01*
X57694501Y-100618020D01*
X57725306Y-100852010D01*
X57786394Y-101079993D01*
X57876714Y-101298045D01*
X57876719Y-101298056D01*
X57927766Y-101386471D01*
X57994727Y-101502450D01*
X57994729Y-101502453D01*
X57994730Y-101502454D01*
X58138406Y-101689697D01*
X58138412Y-101689704D01*
X58305295Y-101856587D01*
X58305301Y-101856592D01*
X58492550Y-102000273D01*
X58623918Y-102076118D01*
X58696943Y-102118280D01*
X58696948Y-102118282D01*
X58696951Y-102118284D01*
X58915007Y-102208606D01*
X59142986Y-102269693D01*
X59376989Y-102300500D01*
X59376996Y-102300500D01*
X59613004Y-102300500D01*
X59613011Y-102300500D01*
X59847014Y-102269693D01*
X60074993Y-102208606D01*
X60293049Y-102118284D01*
X60497450Y-102000273D01*
X60684699Y-101856592D01*
X60851592Y-101689699D01*
X60995273Y-101502450D01*
X61113284Y-101298049D01*
X61203606Y-101079993D01*
X61264693Y-100852014D01*
X61295500Y-100618011D01*
X61295500Y-100381995D01*
X113304500Y-100381995D01*
X113304500Y-100618004D01*
X113304501Y-100618020D01*
X113335306Y-100852010D01*
X113396394Y-101079993D01*
X113486714Y-101298045D01*
X113486719Y-101298056D01*
X113537766Y-101386471D01*
X113604727Y-101502450D01*
X113604729Y-101502453D01*
X113604730Y-101502454D01*
X113748406Y-101689697D01*
X113748412Y-101689704D01*
X113915295Y-101856587D01*
X113915301Y-101856592D01*
X114102550Y-102000273D01*
X114233918Y-102076118D01*
X114306943Y-102118280D01*
X114306948Y-102118282D01*
X114306951Y-102118284D01*
X114525007Y-102208606D01*
X114752986Y-102269693D01*
X114986989Y-102300500D01*
X114986996Y-102300500D01*
X115223004Y-102300500D01*
X115223011Y-102300500D01*
X115457014Y-102269693D01*
X115684993Y-102208606D01*
X115903049Y-102118284D01*
X116107450Y-102000273D01*
X116165867Y-101955447D01*
X116194355Y-101933589D01*
X116240426Y-101898236D01*
X116294699Y-101856592D01*
X116461592Y-101689699D01*
X116605273Y-101502450D01*
X116723284Y-101298049D01*
X116813606Y-101079993D01*
X116874693Y-100852014D01*
X116905500Y-100618011D01*
X116905500Y-100381989D01*
X116903777Y-100368905D01*
X121950000Y-100368905D01*
X121950000Y-100631094D01*
X121984220Y-100891009D01*
X121984222Y-100891020D01*
X122052075Y-101144255D01*
X122152404Y-101386471D01*
X122152409Y-101386482D01*
X122283488Y-101613516D01*
X122283494Y-101613524D01*
X122370080Y-101726365D01*
X123245633Y-100850812D01*
X123254342Y-100871837D01*
X123340251Y-101000408D01*
X123449592Y-101109749D01*
X123578163Y-101195658D01*
X123599186Y-101204366D01*
X122723633Y-102079917D01*
X122723633Y-102079918D01*
X122836475Y-102166505D01*
X122836483Y-102166511D01*
X123063517Y-102297590D01*
X123063528Y-102297595D01*
X123305744Y-102397924D01*
X123558979Y-102465777D01*
X123558990Y-102465779D01*
X123818905Y-102499999D01*
X123818920Y-102500000D01*
X124081080Y-102500000D01*
X124081094Y-102499999D01*
X124341009Y-102465779D01*
X124341020Y-102465777D01*
X124594255Y-102397924D01*
X124836471Y-102297595D01*
X124836482Y-102297590D01*
X125063516Y-102166511D01*
X125063534Y-102166499D01*
X125176365Y-102079919D01*
X125176365Y-102079917D01*
X125089346Y-101992898D01*
X125007752Y-101911304D01*
X138599500Y-101911304D01*
X138599500Y-102088695D01*
X138634103Y-102262658D01*
X138634106Y-102262667D01*
X138701983Y-102426540D01*
X138701990Y-102426553D01*
X138800535Y-102574034D01*
X138800538Y-102574038D01*
X138925961Y-102699461D01*
X138925965Y-102699464D01*
X139073446Y-102798009D01*
X139073459Y-102798016D01*
X139196363Y-102848923D01*
X139237334Y-102865894D01*
X139237336Y-102865894D01*
X139237341Y-102865896D01*
X139411304Y-102900499D01*
X139411307Y-102900500D01*
X139411309Y-102900500D01*
X139588693Y-102900500D01*
X139588694Y-102900499D01*
X139646682Y-102888964D01*
X139762658Y-102865896D01*
X139762661Y-102865894D01*
X139762666Y-102865894D01*
X139926547Y-102798013D01*
X140074035Y-102699464D01*
X140199464Y-102574035D01*
X140298013Y-102426547D01*
X140365894Y-102262666D01*
X140376648Y-102208605D01*
X140394613Y-102118285D01*
X140400500Y-102088691D01*
X140400500Y-101911309D01*
X140400500Y-101911306D01*
X140400499Y-101911304D01*
X140365896Y-101737341D01*
X140365893Y-101737332D01*
X140361350Y-101726365D01*
X140314611Y-101613524D01*
X140298016Y-101573459D01*
X140298009Y-101573446D01*
X140199464Y-101425965D01*
X140199461Y-101425961D01*
X140074038Y-101300538D01*
X140074034Y-101300535D01*
X139926553Y-101201990D01*
X139926540Y-101201983D01*
X139762667Y-101134106D01*
X139762658Y-101134103D01*
X139588694Y-101099500D01*
X139588691Y-101099500D01*
X139411309Y-101099500D01*
X139411306Y-101099500D01*
X139237341Y-101134103D01*
X139237332Y-101134106D01*
X139073459Y-101201983D01*
X139073446Y-101201990D01*
X138925965Y-101300535D01*
X138925961Y-101300538D01*
X138800538Y-101425961D01*
X138800535Y-101425965D01*
X138701990Y-101573446D01*
X138701983Y-101573459D01*
X138634106Y-101737332D01*
X138634103Y-101737341D01*
X138599500Y-101911304D01*
X125007752Y-101911304D01*
X124300813Y-101204366D01*
X124321837Y-101195658D01*
X124450408Y-101109749D01*
X124559749Y-101000408D01*
X124645658Y-100871837D01*
X124654366Y-100850814D01*
X125529917Y-101726365D01*
X125529919Y-101726365D01*
X125616499Y-101613534D01*
X125616511Y-101613516D01*
X125747590Y-101386482D01*
X125747595Y-101386471D01*
X125847924Y-101144255D01*
X125915777Y-100891020D01*
X125915779Y-100891009D01*
X125949999Y-100631094D01*
X125950000Y-100631080D01*
X125950000Y-100368919D01*
X125949999Y-100368905D01*
X125915779Y-100108990D01*
X125915777Y-100108979D01*
X125847924Y-99855744D01*
X125747595Y-99613528D01*
X125747593Y-99613524D01*
X125662618Y-99466344D01*
X125662617Y-99466342D01*
X125630336Y-99410430D01*
X127919500Y-99410430D01*
X127919500Y-99587821D01*
X127954103Y-99761784D01*
X127954106Y-99761793D01*
X128021983Y-99925666D01*
X128021990Y-99925679D01*
X128120535Y-100073160D01*
X128120538Y-100073164D01*
X128245961Y-100198587D01*
X128245965Y-100198590D01*
X128393446Y-100297135D01*
X128393459Y-100297142D01*
X128516363Y-100348049D01*
X128557334Y-100365020D01*
X128557336Y-100365020D01*
X128557341Y-100365022D01*
X128731304Y-100399625D01*
X128731307Y-100399626D01*
X128731309Y-100399626D01*
X128908693Y-100399626D01*
X128908694Y-100399625D01*
X128966682Y-100388090D01*
X129082658Y-100365022D01*
X129082661Y-100365020D01*
X129082666Y-100365020D01*
X129246547Y-100297139D01*
X129394035Y-100198590D01*
X129519464Y-100073161D01*
X129618013Y-99925673D01*
X129619117Y-99923009D01*
X129659195Y-99826250D01*
X129685894Y-99761792D01*
X129697113Y-99705394D01*
X129715386Y-99613528D01*
X129720500Y-99587817D01*
X129720500Y-99410435D01*
X129720500Y-99410432D01*
X129720499Y-99410430D01*
X129685896Y-99236467D01*
X129685893Y-99236458D01*
X129676464Y-99213695D01*
X129647351Y-99143408D01*
X129620122Y-99077669D01*
X129618014Y-99072582D01*
X129618013Y-99072579D01*
X129618011Y-99072576D01*
X129618009Y-99072572D01*
X129593775Y-99036304D01*
X132099500Y-99036304D01*
X132099500Y-99213695D01*
X132134103Y-99387658D01*
X132134106Y-99387667D01*
X132201983Y-99551540D01*
X132201990Y-99551553D01*
X132300535Y-99699034D01*
X132300538Y-99699038D01*
X132425961Y-99824461D01*
X132425965Y-99824464D01*
X132573446Y-99923009D01*
X132573459Y-99923016D01*
X132696363Y-99973923D01*
X132737334Y-99990894D01*
X132737336Y-99990894D01*
X132737341Y-99990896D01*
X132911304Y-100025499D01*
X132911307Y-100025500D01*
X132911309Y-100025500D01*
X133088693Y-100025500D01*
X133088694Y-100025499D01*
X133184014Y-100006539D01*
X133262658Y-99990896D01*
X133262661Y-99990894D01*
X133262666Y-99990894D01*
X133426547Y-99923013D01*
X133574035Y-99824464D01*
X133699464Y-99699035D01*
X133798013Y-99551547D01*
X133865894Y-99387666D01*
X133881606Y-99308680D01*
X133894043Y-99246152D01*
X133900500Y-99213691D01*
X133900500Y-99036309D01*
X133900500Y-99036306D01*
X133900499Y-99036304D01*
X133865896Y-98862341D01*
X133865893Y-98862332D01*
X133865739Y-98861961D01*
X133836510Y-98791394D01*
X133798016Y-98698459D01*
X133798009Y-98698446D01*
X133699464Y-98550965D01*
X133699461Y-98550961D01*
X133574038Y-98425538D01*
X133574034Y-98425535D01*
X133426553Y-98326990D01*
X133426540Y-98326983D01*
X133262667Y-98259106D01*
X133262658Y-98259103D01*
X133088694Y-98224500D01*
X133088691Y-98224500D01*
X132911309Y-98224500D01*
X132911306Y-98224500D01*
X132737341Y-98259103D01*
X132737332Y-98259106D01*
X132573459Y-98326983D01*
X132573446Y-98326990D01*
X132425965Y-98425535D01*
X132425961Y-98425538D01*
X132300538Y-98550961D01*
X132300535Y-98550965D01*
X132201990Y-98698446D01*
X132201983Y-98698459D01*
X132134106Y-98862332D01*
X132134103Y-98862341D01*
X132099500Y-99036304D01*
X129593775Y-99036304D01*
X129519464Y-98925091D01*
X129519461Y-98925087D01*
X129394038Y-98799664D01*
X129394034Y-98799661D01*
X129246553Y-98701116D01*
X129246540Y-98701109D01*
X129082667Y-98633232D01*
X129082658Y-98633229D01*
X128908694Y-98598626D01*
X128908691Y-98598626D01*
X128731309Y-98598626D01*
X128731306Y-98598626D01*
X128557341Y-98633229D01*
X128557332Y-98633232D01*
X128393459Y-98701109D01*
X128393446Y-98701116D01*
X128245965Y-98799661D01*
X128245961Y-98799664D01*
X128120538Y-98925087D01*
X128120535Y-98925091D01*
X128021990Y-99072572D01*
X128021983Y-99072585D01*
X127954106Y-99236458D01*
X127954103Y-99236467D01*
X127919500Y-99410430D01*
X125630336Y-99410430D01*
X125616510Y-99386482D01*
X125616505Y-99386475D01*
X125529918Y-99273633D01*
X125529917Y-99273633D01*
X124654365Y-100149185D01*
X124645658Y-100128163D01*
X124559749Y-99999592D01*
X124450408Y-99890251D01*
X124321837Y-99804342D01*
X124300811Y-99795633D01*
X125176365Y-98920080D01*
X125063524Y-98833494D01*
X125063516Y-98833488D01*
X124836482Y-98702409D01*
X124836471Y-98702404D01*
X124594255Y-98602075D01*
X124341020Y-98534222D01*
X124341009Y-98534220D01*
X124081094Y-98500000D01*
X123818905Y-98500000D01*
X123558990Y-98534220D01*
X123558979Y-98534222D01*
X123305744Y-98602075D01*
X123063528Y-98702404D01*
X123063517Y-98702409D01*
X122836471Y-98833496D01*
X122723633Y-98920079D01*
X122723633Y-98920080D01*
X123599186Y-99795633D01*
X123578163Y-99804342D01*
X123449592Y-99890251D01*
X123340251Y-99999592D01*
X123254342Y-100128163D01*
X123245633Y-100149186D01*
X122370080Y-99273633D01*
X122370079Y-99273633D01*
X122283496Y-99386471D01*
X122152409Y-99613517D01*
X122152404Y-99613528D01*
X122052075Y-99855744D01*
X121984222Y-100108979D01*
X121984220Y-100108990D01*
X121950000Y-100368905D01*
X116903777Y-100368905D01*
X116881355Y-100198590D01*
X116874693Y-100147986D01*
X116813606Y-99920007D01*
X116723284Y-99701951D01*
X116723282Y-99701948D01*
X116723280Y-99701943D01*
X116672231Y-99613524D01*
X116605273Y-99497550D01*
X116461592Y-99310301D01*
X116461587Y-99310295D01*
X116294704Y-99143412D01*
X116294697Y-99143406D01*
X116194352Y-99066409D01*
X116107454Y-98999730D01*
X116107453Y-98999729D01*
X116107450Y-98999727D01*
X116025957Y-98952677D01*
X115903056Y-98881719D01*
X115903045Y-98881714D01*
X115684993Y-98791394D01*
X115533517Y-98750806D01*
X115457014Y-98730307D01*
X115457013Y-98730306D01*
X115457010Y-98730306D01*
X115223020Y-98699501D01*
X115223017Y-98699500D01*
X115223011Y-98699500D01*
X114986989Y-98699500D01*
X114986983Y-98699500D01*
X114986979Y-98699501D01*
X114752989Y-98730306D01*
X114525006Y-98791394D01*
X114306954Y-98881714D01*
X114306943Y-98881719D01*
X114102545Y-98999730D01*
X113915302Y-99143406D01*
X113915295Y-99143412D01*
X113748412Y-99310295D01*
X113748406Y-99310302D01*
X113604730Y-99497545D01*
X113486719Y-99701943D01*
X113486714Y-99701954D01*
X113396394Y-99920006D01*
X113335306Y-100147989D01*
X113304501Y-100381979D01*
X113304500Y-100381995D01*
X61295500Y-100381995D01*
X61295500Y-100381989D01*
X61264693Y-100147986D01*
X61203606Y-99920007D01*
X61113284Y-99701951D01*
X61113282Y-99701948D01*
X61113280Y-99701943D01*
X61062231Y-99613524D01*
X60995273Y-99497550D01*
X60851592Y-99310301D01*
X60851587Y-99310295D01*
X60684704Y-99143412D01*
X60684697Y-99143406D01*
X60497454Y-98999730D01*
X60497453Y-98999729D01*
X60497450Y-98999727D01*
X60415957Y-98952677D01*
X60293056Y-98881719D01*
X60293045Y-98881714D01*
X60074993Y-98791394D01*
X59923517Y-98750806D01*
X59847014Y-98730307D01*
X59847013Y-98730306D01*
X59847010Y-98730306D01*
X59613020Y-98699501D01*
X59613017Y-98699500D01*
X59613011Y-98699500D01*
X59376989Y-98699500D01*
X59376983Y-98699500D01*
X59376979Y-98699501D01*
X59142989Y-98730306D01*
X58915006Y-98791394D01*
X58696954Y-98881714D01*
X58696943Y-98881719D01*
X58492545Y-98999730D01*
X58305302Y-99143406D01*
X58305295Y-99143412D01*
X58138412Y-99310295D01*
X58138406Y-99310302D01*
X57994730Y-99497545D01*
X57876719Y-99701943D01*
X57876714Y-99701954D01*
X57786394Y-99920006D01*
X57725306Y-100147989D01*
X57694501Y-100381979D01*
X57694500Y-100381995D01*
X52332834Y-100381995D01*
X52303847Y-100198977D01*
X52274608Y-100108990D01*
X52241320Y-100006539D01*
X52149458Y-99826251D01*
X52030524Y-99662553D01*
X51887447Y-99519476D01*
X51723749Y-99400542D01*
X51543461Y-99308680D01*
X51493553Y-99292464D01*
X51351022Y-99246152D01*
X51151176Y-99214500D01*
X51151171Y-99214500D01*
X50948829Y-99214500D01*
X50948824Y-99214500D01*
X50748977Y-99246152D01*
X50556536Y-99308681D01*
X50376250Y-99400542D01*
X50285685Y-99466342D01*
X50212553Y-99519476D01*
X50212551Y-99519478D01*
X50212550Y-99519478D01*
X50069478Y-99662550D01*
X50069478Y-99662551D01*
X50069476Y-99662553D01*
X50038351Y-99705393D01*
X49950542Y-99826250D01*
X49858681Y-100006536D01*
X49796152Y-100198977D01*
X49764500Y-100398823D01*
X34500000Y-100398823D01*
X34500000Y-98750804D01*
X37437000Y-98750804D01*
X37437000Y-98928195D01*
X37471603Y-99102158D01*
X37471606Y-99102167D01*
X37539483Y-99266040D01*
X37539490Y-99266053D01*
X37638035Y-99413534D01*
X37638038Y-99413538D01*
X37763461Y-99538961D01*
X37763465Y-99538964D01*
X37910946Y-99637509D01*
X37910959Y-99637516D01*
X38033863Y-99688423D01*
X38074834Y-99705394D01*
X38074836Y-99705394D01*
X38074841Y-99705396D01*
X38248804Y-99739999D01*
X38248807Y-99740000D01*
X38248809Y-99740000D01*
X38426193Y-99740000D01*
X38426194Y-99739999D01*
X38484182Y-99728464D01*
X38600158Y-99705396D01*
X38600161Y-99705394D01*
X38600166Y-99705394D01*
X38764047Y-99637513D01*
X38911535Y-99538964D01*
X39036964Y-99413535D01*
X39135513Y-99266047D01*
X39203394Y-99102166D01*
X39209280Y-99072579D01*
X39231571Y-98960513D01*
X39238000Y-98928191D01*
X39238000Y-98750809D01*
X39238000Y-98750806D01*
X39237999Y-98750804D01*
X39203396Y-98576841D01*
X39203393Y-98576832D01*
X39135516Y-98412959D01*
X39135509Y-98412946D01*
X39036964Y-98265465D01*
X39036961Y-98265461D01*
X38911538Y-98140038D01*
X38911534Y-98140035D01*
X38812414Y-98073804D01*
X39599500Y-98073804D01*
X39599500Y-98251195D01*
X39634103Y-98425158D01*
X39634106Y-98425167D01*
X39701983Y-98589040D01*
X39701990Y-98589053D01*
X39800535Y-98736534D01*
X39800538Y-98736538D01*
X39925961Y-98861961D01*
X39925965Y-98861964D01*
X40073446Y-98960509D01*
X40073459Y-98960516D01*
X40168125Y-98999727D01*
X40237334Y-99028394D01*
X40237336Y-99028394D01*
X40237341Y-99028396D01*
X40411304Y-99062999D01*
X40411307Y-99063000D01*
X40411309Y-99063000D01*
X40588693Y-99063000D01*
X40588694Y-99062999D01*
X40646682Y-99051464D01*
X40762658Y-99028396D01*
X40762661Y-99028394D01*
X40762666Y-99028394D01*
X40926547Y-98960513D01*
X41074035Y-98861964D01*
X41185195Y-98750804D01*
X43937000Y-98750804D01*
X43937000Y-98928195D01*
X43971603Y-99102158D01*
X43971606Y-99102167D01*
X44039483Y-99266040D01*
X44039490Y-99266053D01*
X44138035Y-99413534D01*
X44138038Y-99413538D01*
X44263461Y-99538961D01*
X44263465Y-99538964D01*
X44410946Y-99637509D01*
X44410959Y-99637516D01*
X44533863Y-99688423D01*
X44574834Y-99705394D01*
X44574836Y-99705394D01*
X44574841Y-99705396D01*
X44748804Y-99739999D01*
X44748807Y-99740000D01*
X44748809Y-99740000D01*
X44926193Y-99740000D01*
X44926194Y-99739999D01*
X44984182Y-99728464D01*
X45100158Y-99705396D01*
X45100161Y-99705394D01*
X45100166Y-99705394D01*
X45264047Y-99637513D01*
X45411535Y-99538964D01*
X45536964Y-99413535D01*
X45635513Y-99266047D01*
X45703394Y-99102166D01*
X45709280Y-99072579D01*
X45731571Y-98960513D01*
X45738000Y-98928191D01*
X45738000Y-98750809D01*
X45738000Y-98750806D01*
X45737999Y-98750804D01*
X45703396Y-98576841D01*
X45703393Y-98576832D01*
X45635516Y-98412959D01*
X45635509Y-98412946D01*
X45536964Y-98265465D01*
X45536961Y-98265461D01*
X45411538Y-98140038D01*
X45411534Y-98140035D01*
X45264053Y-98041490D01*
X45264040Y-98041483D01*
X45100167Y-97973606D01*
X45100158Y-97973603D01*
X44926194Y-97939000D01*
X44926191Y-97939000D01*
X44748809Y-97939000D01*
X44748806Y-97939000D01*
X44574841Y-97973603D01*
X44574832Y-97973606D01*
X44410959Y-98041483D01*
X44410946Y-98041490D01*
X44263465Y-98140035D01*
X44263461Y-98140038D01*
X44138038Y-98265461D01*
X44138035Y-98265465D01*
X44039490Y-98412946D01*
X44039483Y-98412959D01*
X43971606Y-98576832D01*
X43971603Y-98576841D01*
X43937000Y-98750804D01*
X41185195Y-98750804D01*
X41199464Y-98736535D01*
X41298013Y-98589047D01*
X41365894Y-98425166D01*
X41368323Y-98412959D01*
X41397661Y-98265465D01*
X41400500Y-98251191D01*
X41400500Y-98073809D01*
X41400500Y-98073806D01*
X41400499Y-98073804D01*
X41365896Y-97899841D01*
X41365893Y-97899832D01*
X41298016Y-97735959D01*
X41298009Y-97735946D01*
X41199464Y-97588465D01*
X41199461Y-97588461D01*
X41074038Y-97463038D01*
X41074034Y-97463035D01*
X40926553Y-97364490D01*
X40926540Y-97364483D01*
X40762667Y-97296606D01*
X40762658Y-97296603D01*
X40588694Y-97262000D01*
X40588691Y-97262000D01*
X40411309Y-97262000D01*
X40411306Y-97262000D01*
X40237341Y-97296603D01*
X40237332Y-97296606D01*
X40073459Y-97364483D01*
X40073446Y-97364490D01*
X39925965Y-97463035D01*
X39925961Y-97463038D01*
X39800538Y-97588461D01*
X39800535Y-97588465D01*
X39701990Y-97735946D01*
X39701983Y-97735959D01*
X39634106Y-97899832D01*
X39634103Y-97899841D01*
X39599500Y-98073804D01*
X38812414Y-98073804D01*
X38764053Y-98041490D01*
X38764040Y-98041483D01*
X38600167Y-97973606D01*
X38600158Y-97973603D01*
X38426194Y-97939000D01*
X38426191Y-97939000D01*
X38248809Y-97939000D01*
X38248806Y-97939000D01*
X38074841Y-97973603D01*
X38074832Y-97973606D01*
X37910959Y-98041483D01*
X37910946Y-98041490D01*
X37763465Y-98140035D01*
X37763461Y-98140038D01*
X37638038Y-98265461D01*
X37638035Y-98265465D01*
X37539490Y-98412946D01*
X37539483Y-98412959D01*
X37471606Y-98576832D01*
X37471603Y-98576841D01*
X37437000Y-98750804D01*
X34500000Y-98750804D01*
X34500000Y-96786304D01*
X128599500Y-96786304D01*
X128599500Y-96963695D01*
X128634103Y-97137658D01*
X128634106Y-97137667D01*
X128701983Y-97301540D01*
X128701990Y-97301553D01*
X128800535Y-97449034D01*
X128800538Y-97449038D01*
X128925961Y-97574461D01*
X128925965Y-97574464D01*
X129073446Y-97673009D01*
X129073459Y-97673016D01*
X129196363Y-97723923D01*
X129237334Y-97740894D01*
X129237336Y-97740894D01*
X129237341Y-97740896D01*
X129411304Y-97775499D01*
X129411307Y-97775500D01*
X129411309Y-97775500D01*
X129588693Y-97775500D01*
X129588694Y-97775499D01*
X129646682Y-97763964D01*
X129762658Y-97740896D01*
X129762661Y-97740894D01*
X129762666Y-97740894D01*
X129926547Y-97673013D01*
X130074035Y-97574464D01*
X130199464Y-97449035D01*
X130298013Y-97301547D01*
X130299479Y-97298009D01*
X130314394Y-97262000D01*
X130365894Y-97137666D01*
X130378551Y-97074038D01*
X130400499Y-96963695D01*
X130400500Y-96963693D01*
X130400500Y-96786306D01*
X130400499Y-96786304D01*
X130365896Y-96612341D01*
X130365893Y-96612332D01*
X130356102Y-96588695D01*
X130352790Y-96580699D01*
X130299760Y-96452669D01*
X130298014Y-96448456D01*
X130298013Y-96448453D01*
X130298011Y-96448450D01*
X130298009Y-96448446D01*
X130273191Y-96411304D01*
X136099500Y-96411304D01*
X136099500Y-96588695D01*
X136134103Y-96762658D01*
X136134106Y-96762667D01*
X136201983Y-96926540D01*
X136201990Y-96926553D01*
X136300535Y-97074034D01*
X136300538Y-97074038D01*
X136425961Y-97199461D01*
X136425965Y-97199464D01*
X136573446Y-97298009D01*
X136573459Y-97298016D01*
X136696363Y-97348923D01*
X136737334Y-97365894D01*
X136737336Y-97365894D01*
X136737341Y-97365896D01*
X136911304Y-97400499D01*
X136911307Y-97400500D01*
X136911309Y-97400500D01*
X137088693Y-97400500D01*
X137088694Y-97400499D01*
X137146682Y-97388964D01*
X137262658Y-97365896D01*
X137262661Y-97365894D01*
X137262666Y-97365894D01*
X137426547Y-97298013D01*
X137574035Y-97199464D01*
X137699464Y-97074035D01*
X137798013Y-96926547D01*
X137865894Y-96762666D01*
X137900500Y-96588691D01*
X137900500Y-96411309D01*
X137900500Y-96411306D01*
X137900499Y-96411304D01*
X141599500Y-96411304D01*
X141599500Y-96588695D01*
X141634103Y-96762658D01*
X141634106Y-96762667D01*
X141701983Y-96926540D01*
X141701990Y-96926553D01*
X141800535Y-97074034D01*
X141800538Y-97074038D01*
X141925961Y-97199461D01*
X141925965Y-97199464D01*
X142073446Y-97298009D01*
X142073459Y-97298016D01*
X142196363Y-97348923D01*
X142237334Y-97365894D01*
X142237336Y-97365894D01*
X142237341Y-97365896D01*
X142411304Y-97400499D01*
X142411307Y-97400500D01*
X142411309Y-97400500D01*
X142588693Y-97400500D01*
X142588694Y-97400499D01*
X142646682Y-97388964D01*
X142762658Y-97365896D01*
X142762661Y-97365894D01*
X142762666Y-97365894D01*
X142926547Y-97298013D01*
X143074035Y-97199464D01*
X143199464Y-97074035D01*
X143298013Y-96926547D01*
X143365894Y-96762666D01*
X143400500Y-96588691D01*
X143400500Y-96411309D01*
X143400500Y-96411306D01*
X143400499Y-96411304D01*
X230599500Y-96411304D01*
X230599500Y-96588695D01*
X230634103Y-96762658D01*
X230634106Y-96762667D01*
X230701983Y-96926540D01*
X230701990Y-96926553D01*
X230800535Y-97074034D01*
X230800538Y-97074038D01*
X230925961Y-97199461D01*
X230925965Y-97199464D01*
X231073446Y-97298009D01*
X231073459Y-97298016D01*
X231196363Y-97348923D01*
X231237334Y-97365894D01*
X231237336Y-97365894D01*
X231237341Y-97365896D01*
X231411304Y-97400499D01*
X231411307Y-97400500D01*
X231411309Y-97400500D01*
X231588693Y-97400500D01*
X231588694Y-97400499D01*
X231646682Y-97388964D01*
X231762658Y-97365896D01*
X231762661Y-97365894D01*
X231762666Y-97365894D01*
X231926547Y-97298013D01*
X232074035Y-97199464D01*
X232199464Y-97074035D01*
X232298013Y-96926547D01*
X232365894Y-96762666D01*
X232400500Y-96588691D01*
X232400500Y-96411309D01*
X232400500Y-96411306D01*
X232400499Y-96411304D01*
X232365896Y-96237341D01*
X232365893Y-96237332D01*
X232298016Y-96073459D01*
X232298009Y-96073446D01*
X232199464Y-95925965D01*
X232199461Y-95925961D01*
X232074038Y-95800538D01*
X232074034Y-95800535D01*
X231926553Y-95701990D01*
X231926540Y-95701983D01*
X231762667Y-95634106D01*
X231762658Y-95634103D01*
X231588694Y-95599500D01*
X231588691Y-95599500D01*
X231411309Y-95599500D01*
X231411306Y-95599500D01*
X231237341Y-95634103D01*
X231237332Y-95634106D01*
X231073459Y-95701983D01*
X231073446Y-95701990D01*
X230925965Y-95800535D01*
X230925961Y-95800538D01*
X230800538Y-95925961D01*
X230800535Y-95925965D01*
X230701990Y-96073446D01*
X230701983Y-96073459D01*
X230634106Y-96237332D01*
X230634103Y-96237341D01*
X230599500Y-96411304D01*
X143400499Y-96411304D01*
X143365896Y-96237341D01*
X143365893Y-96237332D01*
X143298016Y-96073459D01*
X143298009Y-96073446D01*
X143199464Y-95925965D01*
X143199461Y-95925961D01*
X143074038Y-95800538D01*
X143074034Y-95800535D01*
X142926553Y-95701990D01*
X142926540Y-95701983D01*
X142762667Y-95634106D01*
X142762658Y-95634103D01*
X142588694Y-95599500D01*
X142588691Y-95599500D01*
X142411309Y-95599500D01*
X142411306Y-95599500D01*
X142237341Y-95634103D01*
X142237332Y-95634106D01*
X142073459Y-95701983D01*
X142073446Y-95701990D01*
X141925965Y-95800535D01*
X141925961Y-95800538D01*
X141800538Y-95925961D01*
X141800535Y-95925965D01*
X141701990Y-96073446D01*
X141701983Y-96073459D01*
X141634106Y-96237332D01*
X141634103Y-96237341D01*
X141599500Y-96411304D01*
X137900499Y-96411304D01*
X137865896Y-96237341D01*
X137865893Y-96237332D01*
X137798016Y-96073459D01*
X137798009Y-96073446D01*
X137699464Y-95925965D01*
X137699461Y-95925961D01*
X137574038Y-95800538D01*
X137574034Y-95800535D01*
X137426553Y-95701990D01*
X137426540Y-95701983D01*
X137262667Y-95634106D01*
X137262658Y-95634103D01*
X137088694Y-95599500D01*
X137088691Y-95599500D01*
X136911309Y-95599500D01*
X136911306Y-95599500D01*
X136737341Y-95634103D01*
X136737332Y-95634106D01*
X136573459Y-95701983D01*
X136573446Y-95701990D01*
X136425965Y-95800535D01*
X136425961Y-95800538D01*
X136300538Y-95925961D01*
X136300535Y-95925965D01*
X136201990Y-96073446D01*
X136201983Y-96073459D01*
X136134106Y-96237332D01*
X136134103Y-96237341D01*
X136099500Y-96411304D01*
X130273191Y-96411304D01*
X130199464Y-96300965D01*
X130199461Y-96300961D01*
X130074038Y-96175538D01*
X130074034Y-96175535D01*
X129926553Y-96076990D01*
X129926540Y-96076983D01*
X129762667Y-96009106D01*
X129762658Y-96009103D01*
X129588694Y-95974500D01*
X129588691Y-95974500D01*
X129411309Y-95974500D01*
X129411306Y-95974500D01*
X129237341Y-96009103D01*
X129237332Y-96009106D01*
X129073459Y-96076983D01*
X129073446Y-96076990D01*
X128925965Y-96175535D01*
X128925961Y-96175538D01*
X128800538Y-96300961D01*
X128800535Y-96300965D01*
X128701990Y-96448446D01*
X128701983Y-96448459D01*
X128634106Y-96612332D01*
X128634103Y-96612341D01*
X128599500Y-96786304D01*
X34500000Y-96786304D01*
X34500000Y-95411304D01*
X38599500Y-95411304D01*
X38599500Y-95588695D01*
X38634103Y-95762658D01*
X38634106Y-95762667D01*
X38701983Y-95926540D01*
X38701990Y-95926553D01*
X38800535Y-96074034D01*
X38800538Y-96074038D01*
X38925961Y-96199461D01*
X38925965Y-96199464D01*
X39073446Y-96298009D01*
X39073459Y-96298016D01*
X39196363Y-96348923D01*
X39237334Y-96365894D01*
X39237336Y-96365894D01*
X39237341Y-96365896D01*
X39411304Y-96400499D01*
X39411307Y-96400500D01*
X39411309Y-96400500D01*
X39588693Y-96400500D01*
X39588694Y-96400499D01*
X39646682Y-96388964D01*
X39762658Y-96365896D01*
X39762661Y-96365894D01*
X39762666Y-96365894D01*
X39926547Y-96298013D01*
X40074035Y-96199464D01*
X40199464Y-96074035D01*
X40298013Y-95926547D01*
X40365894Y-95762666D01*
X40377498Y-95704332D01*
X40400499Y-95588695D01*
X40400500Y-95588693D01*
X40400500Y-95411306D01*
X40400499Y-95411304D01*
X40365896Y-95237341D01*
X40365893Y-95237332D01*
X40298016Y-95073459D01*
X40298009Y-95073446D01*
X40231633Y-94974108D01*
X40199464Y-94925965D01*
X40199461Y-94925961D01*
X40184804Y-94911304D01*
X151599500Y-94911304D01*
X151599500Y-95088695D01*
X151634103Y-95262658D01*
X151634106Y-95262667D01*
X151701983Y-95426540D01*
X151701990Y-95426553D01*
X151800535Y-95574034D01*
X151800538Y-95574038D01*
X151925961Y-95699461D01*
X151925965Y-95699464D01*
X152073446Y-95798009D01*
X152073459Y-95798016D01*
X152155049Y-95831811D01*
X152237334Y-95865894D01*
X152237336Y-95865894D01*
X152237341Y-95865896D01*
X152411304Y-95900499D01*
X152411307Y-95900500D01*
X152411309Y-95900500D01*
X152588693Y-95900500D01*
X152588694Y-95900499D01*
X152646682Y-95888964D01*
X152762658Y-95865896D01*
X152762661Y-95865894D01*
X152762666Y-95865894D01*
X152926547Y-95798013D01*
X153074035Y-95699464D01*
X153199464Y-95574035D01*
X153298013Y-95426547D01*
X153304327Y-95411304D01*
X216099500Y-95411304D01*
X216099500Y-95588695D01*
X216134103Y-95762658D01*
X216134106Y-95762667D01*
X216201983Y-95926540D01*
X216201990Y-95926553D01*
X216300535Y-96074034D01*
X216300538Y-96074038D01*
X216425961Y-96199461D01*
X216425965Y-96199464D01*
X216573446Y-96298009D01*
X216573459Y-96298016D01*
X216696363Y-96348923D01*
X216737334Y-96365894D01*
X216737336Y-96365894D01*
X216737341Y-96365896D01*
X216911304Y-96400499D01*
X216911307Y-96400500D01*
X216911309Y-96400500D01*
X217088693Y-96400500D01*
X217088694Y-96400499D01*
X217146682Y-96388964D01*
X217262658Y-96365896D01*
X217262661Y-96365894D01*
X217262666Y-96365894D01*
X217426547Y-96298013D01*
X217574035Y-96199464D01*
X217699464Y-96074035D01*
X217798013Y-95926547D01*
X217865894Y-95762666D01*
X217877498Y-95704332D01*
X217900499Y-95588695D01*
X217900500Y-95588693D01*
X217900500Y-95411306D01*
X217900499Y-95411304D01*
X217865896Y-95237341D01*
X217865893Y-95237332D01*
X217798016Y-95073459D01*
X217798007Y-95073443D01*
X217794364Y-95067990D01*
X217752400Y-95005188D01*
X224309499Y-95005188D01*
X224309499Y-95182579D01*
X224344102Y-95356542D01*
X224344105Y-95356551D01*
X224411982Y-95520424D01*
X224411989Y-95520437D01*
X224510534Y-95667918D01*
X224510537Y-95667922D01*
X224635960Y-95793345D01*
X224635964Y-95793348D01*
X224783445Y-95891893D01*
X224783458Y-95891900D01*
X224906362Y-95942807D01*
X224947333Y-95959778D01*
X224947335Y-95959778D01*
X224947340Y-95959780D01*
X225121303Y-95994383D01*
X225121306Y-95994384D01*
X225121308Y-95994384D01*
X225298692Y-95994384D01*
X225298693Y-95994383D01*
X225356681Y-95982848D01*
X225472657Y-95959780D01*
X225472660Y-95959778D01*
X225472665Y-95959778D01*
X225636546Y-95891897D01*
X225784034Y-95793348D01*
X225909463Y-95667919D01*
X225909466Y-95667913D01*
X225913323Y-95663215D01*
X225914935Y-95664538D01*
X225961250Y-95625811D01*
X226030573Y-95617084D01*
X226058223Y-95624932D01*
X226162005Y-95667919D01*
X226175672Y-95673580D01*
X226175676Y-95673580D01*
X226175677Y-95673581D01*
X226311004Y-95700500D01*
X226311007Y-95700500D01*
X226448995Y-95700500D01*
X226540041Y-95682389D01*
X226584328Y-95673580D01*
X226711811Y-95620775D01*
X226826542Y-95544114D01*
X226924114Y-95446542D01*
X227000775Y-95331811D01*
X227053580Y-95204328D01*
X227076581Y-95088695D01*
X227080500Y-95068995D01*
X227080500Y-94931004D01*
X227080499Y-94930999D01*
X227080182Y-94929403D01*
X227076582Y-94911304D01*
X234099500Y-94911304D01*
X234099500Y-95088695D01*
X234134103Y-95262658D01*
X234134106Y-95262667D01*
X234201983Y-95426540D01*
X234201990Y-95426553D01*
X234300535Y-95574034D01*
X234300538Y-95574038D01*
X234425961Y-95699461D01*
X234425965Y-95699464D01*
X234573446Y-95798009D01*
X234573459Y-95798016D01*
X234655049Y-95831811D01*
X234737334Y-95865894D01*
X234737336Y-95865894D01*
X234737341Y-95865896D01*
X234911304Y-95900499D01*
X234911307Y-95900500D01*
X234911309Y-95900500D01*
X235088693Y-95900500D01*
X235088694Y-95900499D01*
X235146682Y-95888964D01*
X235262658Y-95865896D01*
X235262661Y-95865894D01*
X235262666Y-95865894D01*
X235426547Y-95798013D01*
X235574035Y-95699464D01*
X235610284Y-95663215D01*
X235662319Y-95611181D01*
X235723642Y-95577696D01*
X235793334Y-95582680D01*
X235837681Y-95611181D01*
X235925961Y-95699461D01*
X235925965Y-95699464D01*
X236073446Y-95798009D01*
X236073459Y-95798016D01*
X236155049Y-95831811D01*
X236237334Y-95865894D01*
X236237336Y-95865894D01*
X236237341Y-95865896D01*
X236411304Y-95900499D01*
X236411307Y-95900500D01*
X236411309Y-95900500D01*
X236588693Y-95900500D01*
X236588694Y-95900499D01*
X236646682Y-95888964D01*
X236762658Y-95865896D01*
X236762661Y-95865894D01*
X236762666Y-95865894D01*
X236926547Y-95798013D01*
X237074035Y-95699464D01*
X237199464Y-95574035D01*
X237202832Y-95568995D01*
X237799499Y-95568995D01*
X237826418Y-95704322D01*
X237826421Y-95704332D01*
X237879221Y-95831804D01*
X237879228Y-95831817D01*
X237955885Y-95946541D01*
X237955888Y-95946545D01*
X238053454Y-96044111D01*
X238053458Y-96044114D01*
X238168182Y-96120771D01*
X238168195Y-96120778D01*
X238295667Y-96173578D01*
X238295672Y-96173580D01*
X238295676Y-96173580D01*
X238295677Y-96173581D01*
X238431004Y-96200500D01*
X238431007Y-96200500D01*
X238568995Y-96200500D01*
X238660041Y-96182389D01*
X238704328Y-96173580D01*
X238831811Y-96120775D01*
X238946542Y-96044114D01*
X239044114Y-95946542D01*
X239120775Y-95831811D01*
X239173580Y-95704328D01*
X239196581Y-95588695D01*
X239200500Y-95568995D01*
X239200500Y-95431004D01*
X239173581Y-95295677D01*
X239173580Y-95295676D01*
X239173580Y-95295672D01*
X239135746Y-95204332D01*
X239120778Y-95168195D01*
X239120771Y-95168182D01*
X239044114Y-95053458D01*
X239044111Y-95053454D01*
X238946545Y-94955888D01*
X238946541Y-94955885D01*
X238831817Y-94879228D01*
X238831804Y-94879221D01*
X238704332Y-94826421D01*
X238704322Y-94826418D01*
X238568995Y-94799500D01*
X238568993Y-94799500D01*
X238431007Y-94799500D01*
X238431005Y-94799500D01*
X238295677Y-94826418D01*
X238295667Y-94826421D01*
X238168195Y-94879221D01*
X238168182Y-94879228D01*
X238053458Y-94955885D01*
X238053454Y-94955888D01*
X237955888Y-95053454D01*
X237955885Y-95053458D01*
X237879228Y-95168182D01*
X237879221Y-95168195D01*
X237826421Y-95295667D01*
X237826418Y-95295677D01*
X237799500Y-95431004D01*
X237799500Y-95431007D01*
X237799500Y-95568993D01*
X237799500Y-95568995D01*
X237799499Y-95568995D01*
X237202832Y-95568995D01*
X237298013Y-95426547D01*
X237365894Y-95262666D01*
X237370932Y-95237341D01*
X237400499Y-95088695D01*
X237400500Y-95088693D01*
X237400500Y-94911306D01*
X237400499Y-94911304D01*
X237365896Y-94737341D01*
X237365893Y-94737332D01*
X237298016Y-94573459D01*
X237298009Y-94573446D01*
X237199464Y-94425965D01*
X237199461Y-94425961D01*
X237074038Y-94300538D01*
X237074034Y-94300535D01*
X236926553Y-94201990D01*
X236926540Y-94201983D01*
X236762667Y-94134106D01*
X236762658Y-94134103D01*
X236588694Y-94099500D01*
X236588691Y-94099500D01*
X236411309Y-94099500D01*
X236411306Y-94099500D01*
X236237341Y-94134103D01*
X236237332Y-94134106D01*
X236073459Y-94201983D01*
X236073446Y-94201990D01*
X235925965Y-94300535D01*
X235925961Y-94300538D01*
X235837681Y-94388819D01*
X235776358Y-94422304D01*
X235706666Y-94417320D01*
X235662319Y-94388819D01*
X235574038Y-94300538D01*
X235574034Y-94300535D01*
X235426553Y-94201990D01*
X235426540Y-94201983D01*
X235262667Y-94134106D01*
X235262658Y-94134103D01*
X235088694Y-94099500D01*
X235088691Y-94099500D01*
X234911309Y-94099500D01*
X234911306Y-94099500D01*
X234737341Y-94134103D01*
X234737332Y-94134106D01*
X234573459Y-94201983D01*
X234573446Y-94201990D01*
X234425965Y-94300535D01*
X234425961Y-94300538D01*
X234300538Y-94425961D01*
X234300535Y-94425965D01*
X234201990Y-94573446D01*
X234201983Y-94573459D01*
X234134106Y-94737332D01*
X234134103Y-94737341D01*
X234099500Y-94911304D01*
X227076582Y-94911304D01*
X227053581Y-94795677D01*
X227053580Y-94795676D01*
X227053580Y-94795672D01*
X227014773Y-94701983D01*
X227000778Y-94668195D01*
X227000771Y-94668182D01*
X226924114Y-94553458D01*
X226924111Y-94553454D01*
X226826545Y-94455888D01*
X226826541Y-94455885D01*
X226711817Y-94379228D01*
X226711804Y-94379221D01*
X226584332Y-94326421D01*
X226584322Y-94326418D01*
X226448995Y-94299500D01*
X226448993Y-94299500D01*
X226311007Y-94299500D01*
X226311005Y-94299500D01*
X226175677Y-94326418D01*
X226175667Y-94326421D01*
X226048195Y-94379221D01*
X226048182Y-94379228D01*
X225965345Y-94434579D01*
X225898667Y-94455457D01*
X225831287Y-94436972D01*
X225808773Y-94419158D01*
X225784037Y-94394422D01*
X225784033Y-94394419D01*
X225636552Y-94295874D01*
X225636539Y-94295867D01*
X225472666Y-94227990D01*
X225472657Y-94227987D01*
X225298693Y-94193384D01*
X225298690Y-94193384D01*
X225121308Y-94193384D01*
X225121305Y-94193384D01*
X224947340Y-94227987D01*
X224947331Y-94227990D01*
X224783458Y-94295867D01*
X224783445Y-94295874D01*
X224635964Y-94394419D01*
X224635960Y-94394422D01*
X224510537Y-94519845D01*
X224510534Y-94519849D01*
X224411989Y-94667330D01*
X224411982Y-94667343D01*
X224344105Y-94831216D01*
X224344102Y-94831225D01*
X224309499Y-95005188D01*
X217752400Y-95005188D01*
X217699464Y-94925965D01*
X217699461Y-94925961D01*
X217574038Y-94800538D01*
X217574034Y-94800535D01*
X217426553Y-94701990D01*
X217426540Y-94701983D01*
X217262667Y-94634106D01*
X217262658Y-94634103D01*
X217088694Y-94599500D01*
X217088691Y-94599500D01*
X216911309Y-94599500D01*
X216911306Y-94599500D01*
X216737341Y-94634103D01*
X216737332Y-94634106D01*
X216573459Y-94701983D01*
X216573446Y-94701990D01*
X216425965Y-94800535D01*
X216425961Y-94800538D01*
X216300538Y-94925961D01*
X216300535Y-94925965D01*
X216201990Y-95073446D01*
X216201983Y-95073459D01*
X216134106Y-95237332D01*
X216134103Y-95237341D01*
X216099500Y-95411304D01*
X153304327Y-95411304D01*
X153365894Y-95262666D01*
X153370932Y-95237341D01*
X153400499Y-95088695D01*
X153400500Y-95088693D01*
X153400500Y-94911306D01*
X153400499Y-94911304D01*
X153365896Y-94737341D01*
X153365893Y-94737332D01*
X153298016Y-94573459D01*
X153298009Y-94573446D01*
X153199464Y-94425965D01*
X153199461Y-94425961D01*
X153074038Y-94300538D01*
X153074034Y-94300535D01*
X152926553Y-94201990D01*
X152926540Y-94201983D01*
X152762667Y-94134106D01*
X152762658Y-94134103D01*
X152588694Y-94099500D01*
X152588691Y-94099500D01*
X152411309Y-94099500D01*
X152411306Y-94099500D01*
X152237341Y-94134103D01*
X152237332Y-94134106D01*
X152073459Y-94201983D01*
X152073446Y-94201990D01*
X151925965Y-94300535D01*
X151925961Y-94300538D01*
X151800538Y-94425961D01*
X151800535Y-94425965D01*
X151701990Y-94573446D01*
X151701983Y-94573459D01*
X151634106Y-94737332D01*
X151634103Y-94737341D01*
X151599500Y-94911304D01*
X40184804Y-94911304D01*
X40074038Y-94800538D01*
X40074034Y-94800535D01*
X39926553Y-94701990D01*
X39926540Y-94701983D01*
X39762667Y-94634106D01*
X39762658Y-94634103D01*
X39588694Y-94599500D01*
X39588691Y-94599500D01*
X39411309Y-94599500D01*
X39411306Y-94599500D01*
X39237341Y-94634103D01*
X39237332Y-94634106D01*
X39073459Y-94701983D01*
X39073446Y-94701990D01*
X38925965Y-94800535D01*
X38925961Y-94800538D01*
X38800538Y-94925961D01*
X38800535Y-94925965D01*
X38701990Y-95073446D01*
X38701983Y-95073459D01*
X38634106Y-95237332D01*
X38634103Y-95237341D01*
X38599500Y-95411304D01*
X34500000Y-95411304D01*
X34500000Y-93730086D01*
X136515584Y-93730086D01*
X136515584Y-93868451D01*
X136551396Y-94002104D01*
X136551397Y-94002107D01*
X136620576Y-94121930D01*
X136620578Y-94121933D01*
X136620579Y-94121934D01*
X136718419Y-94219774D01*
X136718420Y-94219775D01*
X136718422Y-94219776D01*
X136778333Y-94254365D01*
X136838248Y-94288957D01*
X136971901Y-94324769D01*
X136971903Y-94324769D01*
X137110265Y-94324769D01*
X137110267Y-94324769D01*
X137243920Y-94288957D01*
X137363749Y-94219774D01*
X137461589Y-94121934D01*
X137530772Y-94002105D01*
X137566584Y-93868452D01*
X137566584Y-93730086D01*
X137530772Y-93596433D01*
X137474756Y-93499410D01*
X137461591Y-93476607D01*
X137461587Y-93476602D01*
X137363750Y-93378765D01*
X137363745Y-93378761D01*
X137243922Y-93309582D01*
X137243921Y-93309581D01*
X137243920Y-93309581D01*
X137110267Y-93273769D01*
X136971901Y-93273769D01*
X136838248Y-93309581D01*
X136838245Y-93309582D01*
X136718422Y-93378761D01*
X136718417Y-93378765D01*
X136620580Y-93476602D01*
X136620576Y-93476607D01*
X136551397Y-93596430D01*
X136551396Y-93596433D01*
X136515584Y-93730086D01*
X34500000Y-93730086D01*
X34500000Y-90399983D01*
X35499500Y-90399983D01*
X35499500Y-91600001D01*
X35499501Y-91600018D01*
X35510000Y-91702796D01*
X35510001Y-91702799D01*
X35565185Y-91869331D01*
X35565187Y-91869336D01*
X35568786Y-91875171D01*
X35657288Y-92018656D01*
X35781344Y-92142712D01*
X35930666Y-92234814D01*
X36097203Y-92289999D01*
X36199991Y-92300500D01*
X37400008Y-92300499D01*
X37502797Y-92289999D01*
X37669334Y-92234814D01*
X37818656Y-92142712D01*
X37942712Y-92018656D01*
X38034814Y-91869334D01*
X38089999Y-91702797D01*
X38100500Y-91600009D01*
X38100499Y-90897648D01*
X39099500Y-90897648D01*
X39099500Y-91102351D01*
X39131522Y-91304534D01*
X39194781Y-91499223D01*
X39246135Y-91600009D01*
X39278161Y-91662864D01*
X39287715Y-91681613D01*
X39408028Y-91847213D01*
X39552786Y-91991971D01*
X39665740Y-92074035D01*
X39718390Y-92112287D01*
X39834607Y-92171503D01*
X39900776Y-92205218D01*
X39900778Y-92205218D01*
X39900781Y-92205220D01*
X39991856Y-92234812D01*
X40095465Y-92268477D01*
X40142780Y-92275971D01*
X40297648Y-92300500D01*
X40297649Y-92300500D01*
X40502351Y-92300500D01*
X40502352Y-92300500D01*
X40704534Y-92268477D01*
X40899219Y-92205220D01*
X41081610Y-92112287D01*
X41210482Y-92018657D01*
X41247213Y-91991971D01*
X41247215Y-91991968D01*
X41247219Y-91991966D01*
X41391966Y-91847219D01*
X41391968Y-91847215D01*
X41391971Y-91847213D01*
X41496892Y-91702799D01*
X41512287Y-91681610D01*
X41605220Y-91499219D01*
X41633785Y-91411304D01*
X41638326Y-91397329D01*
X126150931Y-91397329D01*
X126150931Y-91574720D01*
X126185534Y-91748683D01*
X126185537Y-91748692D01*
X126253414Y-91912565D01*
X126253421Y-91912578D01*
X126351966Y-92060059D01*
X126351969Y-92060063D01*
X126477392Y-92185486D01*
X126477396Y-92185489D01*
X126624877Y-92284034D01*
X126624890Y-92284041D01*
X126747794Y-92334948D01*
X126788765Y-92351919D01*
X126788767Y-92351919D01*
X126788772Y-92351921D01*
X126962735Y-92386524D01*
X126962738Y-92386525D01*
X126962740Y-92386525D01*
X127140124Y-92386525D01*
X127140125Y-92386524D01*
X127198113Y-92374989D01*
X127314089Y-92351921D01*
X127314092Y-92351919D01*
X127314097Y-92351919D01*
X127477978Y-92284038D01*
X127625466Y-92185489D01*
X127750895Y-92060060D01*
X127849444Y-91912572D01*
X127917325Y-91748691D01*
X127926455Y-91702795D01*
X127951930Y-91574720D01*
X127951931Y-91574718D01*
X127951931Y-91411304D01*
X132099500Y-91411304D01*
X132099500Y-91588695D01*
X132134103Y-91762658D01*
X132134106Y-91762667D01*
X132201983Y-91926540D01*
X132201990Y-91926553D01*
X132300535Y-92074034D01*
X132300538Y-92074038D01*
X132425961Y-92199461D01*
X132425965Y-92199464D01*
X132573446Y-92298009D01*
X132573459Y-92298016D01*
X132696363Y-92348923D01*
X132737334Y-92365894D01*
X132737336Y-92365894D01*
X132737341Y-92365896D01*
X132911304Y-92400499D01*
X132911307Y-92400500D01*
X132911309Y-92400500D01*
X133088693Y-92400500D01*
X133088694Y-92400499D01*
X133158953Y-92386524D01*
X133262658Y-92365896D01*
X133262661Y-92365894D01*
X133262666Y-92365894D01*
X133426547Y-92298013D01*
X133459535Y-92275971D01*
X140299475Y-92275971D01*
X140326394Y-92411298D01*
X140326397Y-92411308D01*
X140379197Y-92538780D01*
X140379204Y-92538793D01*
X140455861Y-92653517D01*
X140455864Y-92653521D01*
X140553430Y-92751087D01*
X140553434Y-92751090D01*
X140668158Y-92827747D01*
X140668170Y-92827754D01*
X140756287Y-92864252D01*
X140810691Y-92908092D01*
X140832756Y-92974386D01*
X140832835Y-92978813D01*
X140832835Y-92983875D01*
X140832835Y-93121861D01*
X140832835Y-93121863D01*
X140832834Y-93121863D01*
X140859753Y-93257190D01*
X140859756Y-93257200D01*
X140912556Y-93384672D01*
X140912563Y-93384685D01*
X140989220Y-93499409D01*
X140989223Y-93499413D01*
X141086789Y-93596979D01*
X141086793Y-93596982D01*
X141201517Y-93673639D01*
X141201530Y-93673646D01*
X141329002Y-93726446D01*
X141329007Y-93726448D01*
X141329011Y-93726448D01*
X141329012Y-93726449D01*
X141464339Y-93753368D01*
X141464342Y-93753368D01*
X141602330Y-93753368D01*
X141693376Y-93735257D01*
X141719373Y-93730086D01*
X142295584Y-93730086D01*
X142295584Y-93868451D01*
X142331396Y-94002104D01*
X142331397Y-94002107D01*
X142400576Y-94121930D01*
X142400578Y-94121933D01*
X142400579Y-94121934D01*
X142498419Y-94219774D01*
X142498420Y-94219775D01*
X142498422Y-94219776D01*
X142558333Y-94254365D01*
X142618248Y-94288957D01*
X142751901Y-94324769D01*
X142751903Y-94324769D01*
X142890265Y-94324769D01*
X142890267Y-94324769D01*
X143023920Y-94288957D01*
X143143749Y-94219774D01*
X143241589Y-94121934D01*
X143310772Y-94002105D01*
X143346584Y-93868452D01*
X143346584Y-93730086D01*
X143310772Y-93596433D01*
X143254756Y-93499410D01*
X143241591Y-93476607D01*
X143241587Y-93476602D01*
X143143750Y-93378765D01*
X143143745Y-93378761D01*
X143023922Y-93309582D01*
X143023921Y-93309581D01*
X143023920Y-93309581D01*
X142890267Y-93273769D01*
X142751901Y-93273769D01*
X142618248Y-93309581D01*
X142618245Y-93309582D01*
X142498422Y-93378761D01*
X142498417Y-93378765D01*
X142400580Y-93476602D01*
X142400576Y-93476607D01*
X142331397Y-93596430D01*
X142331396Y-93596433D01*
X142295584Y-93730086D01*
X141719373Y-93730086D01*
X141737663Y-93726448D01*
X141865146Y-93673643D01*
X141979877Y-93596982D01*
X142077449Y-93499410D01*
X142154110Y-93384679D01*
X142206915Y-93257196D01*
X142233835Y-93121861D01*
X142233835Y-92983875D01*
X142233835Y-92983872D01*
X142206916Y-92848545D01*
X142206915Y-92848544D01*
X142206915Y-92848540D01*
X142166549Y-92751087D01*
X142154113Y-92721063D01*
X142154106Y-92721050D01*
X142077449Y-92606326D01*
X142077446Y-92606322D01*
X141979880Y-92508756D01*
X141979876Y-92508753D01*
X141865152Y-92432096D01*
X141865142Y-92432091D01*
X141777023Y-92395591D01*
X141722620Y-92351750D01*
X141700555Y-92285456D01*
X141700476Y-92281030D01*
X141700476Y-92137980D01*
X141673557Y-92002653D01*
X141673556Y-92002652D01*
X141673556Y-92002648D01*
X141673554Y-92002643D01*
X141620754Y-91875171D01*
X141620747Y-91875158D01*
X141544090Y-91760434D01*
X141544087Y-91760430D01*
X141446521Y-91662864D01*
X141446517Y-91662861D01*
X141331793Y-91586204D01*
X141331780Y-91586197D01*
X141204308Y-91533397D01*
X141204298Y-91533394D01*
X141068971Y-91506476D01*
X141068969Y-91506476D01*
X140930983Y-91506476D01*
X140930981Y-91506476D01*
X140795653Y-91533394D01*
X140795643Y-91533397D01*
X140668171Y-91586197D01*
X140668158Y-91586204D01*
X140553434Y-91662861D01*
X140553430Y-91662864D01*
X140455864Y-91760430D01*
X140455861Y-91760434D01*
X140379204Y-91875158D01*
X140379197Y-91875171D01*
X140326397Y-92002643D01*
X140326394Y-92002653D01*
X140299476Y-92137980D01*
X140299476Y-92137983D01*
X140299476Y-92275969D01*
X140299476Y-92275971D01*
X140299475Y-92275971D01*
X133459535Y-92275971D01*
X133574035Y-92199464D01*
X133699464Y-92074035D01*
X133699501Y-92073978D01*
X133706839Y-92062999D01*
X133798009Y-91926553D01*
X133798009Y-91926552D01*
X133798013Y-91926547D01*
X133803805Y-91912565D01*
X133830874Y-91847213D01*
X133865894Y-91762666D01*
X133868322Y-91750464D01*
X133900499Y-91588695D01*
X133900500Y-91588693D01*
X133900500Y-91411306D01*
X133900499Y-91411304D01*
X133865896Y-91237341D01*
X133865893Y-91237332D01*
X133860104Y-91223357D01*
X133829912Y-91150464D01*
X133798016Y-91073459D01*
X133798014Y-91073455D01*
X133798013Y-91073453D01*
X133788675Y-91059478D01*
X133765710Y-91025108D01*
X133723745Y-90962304D01*
X148099500Y-90962304D01*
X148099500Y-91139695D01*
X148134103Y-91313658D01*
X148134106Y-91313667D01*
X148201983Y-91477540D01*
X148201990Y-91477553D01*
X148300535Y-91625034D01*
X148300538Y-91625038D01*
X148425961Y-91750461D01*
X148425965Y-91750464D01*
X148573446Y-91849009D01*
X148573459Y-91849016D01*
X148696363Y-91899923D01*
X148737334Y-91916894D01*
X148737336Y-91916894D01*
X148737341Y-91916896D01*
X148911304Y-91951499D01*
X148911307Y-91951500D01*
X148911309Y-91951500D01*
X149088693Y-91951500D01*
X149088694Y-91951499D01*
X149146682Y-91939964D01*
X149262658Y-91916896D01*
X149262661Y-91916894D01*
X149262666Y-91916894D01*
X149426547Y-91849013D01*
X149574035Y-91750464D01*
X149699464Y-91625035D01*
X149798013Y-91477547D01*
X149818516Y-91428048D01*
X149862356Y-91373644D01*
X149928650Y-91351579D01*
X149933077Y-91351500D01*
X150088693Y-91351500D01*
X150088694Y-91351499D01*
X150146682Y-91339964D01*
X150262658Y-91316896D01*
X150262661Y-91316894D01*
X150262666Y-91316894D01*
X150426547Y-91249013D01*
X150574035Y-91150464D01*
X150699464Y-91025035D01*
X150798013Y-90877547D01*
X150865894Y-90713666D01*
X150867575Y-90705218D01*
X150900499Y-90539695D01*
X150900500Y-90539693D01*
X150900500Y-90362306D01*
X150900499Y-90362304D01*
X150865896Y-90188341D01*
X150865893Y-90188332D01*
X150798016Y-90024459D01*
X150798009Y-90024446D01*
X150699464Y-89876965D01*
X150699461Y-89876961D01*
X150574038Y-89751538D01*
X150574034Y-89751535D01*
X150426553Y-89652990D01*
X150426540Y-89652983D01*
X150262667Y-89585106D01*
X150262658Y-89585103D01*
X150088694Y-89550500D01*
X150088691Y-89550500D01*
X149911309Y-89550500D01*
X149911306Y-89550500D01*
X149737341Y-89585103D01*
X149737332Y-89585106D01*
X149573459Y-89652983D01*
X149573446Y-89652990D01*
X149425965Y-89751535D01*
X149425961Y-89751538D01*
X149300538Y-89876961D01*
X149300535Y-89876965D01*
X149201985Y-90024455D01*
X149181483Y-90073953D01*
X149137642Y-90128356D01*
X149071347Y-90150421D01*
X149066922Y-90150500D01*
X148911306Y-90150500D01*
X148737341Y-90185103D01*
X148737332Y-90185106D01*
X148573459Y-90252983D01*
X148573446Y-90252990D01*
X148425965Y-90351535D01*
X148425961Y-90351538D01*
X148300538Y-90476961D01*
X148300535Y-90476965D01*
X148201990Y-90624446D01*
X148201983Y-90624459D01*
X148134106Y-90788332D01*
X148134103Y-90788341D01*
X148099500Y-90962304D01*
X133723745Y-90962304D01*
X133699464Y-90925965D01*
X133699461Y-90925961D01*
X133574038Y-90800538D01*
X133574034Y-90800535D01*
X133426553Y-90701990D01*
X133426540Y-90701983D01*
X133262667Y-90634106D01*
X133262658Y-90634103D01*
X133088694Y-90599500D01*
X133088691Y-90599500D01*
X132911309Y-90599500D01*
X132911306Y-90599500D01*
X132737341Y-90634103D01*
X132737332Y-90634106D01*
X132573459Y-90701983D01*
X132573446Y-90701990D01*
X132425965Y-90800535D01*
X132425961Y-90800538D01*
X132300538Y-90925961D01*
X132300535Y-90925965D01*
X132201990Y-91073446D01*
X132201983Y-91073459D01*
X132134106Y-91237332D01*
X132134103Y-91237341D01*
X132099500Y-91411304D01*
X127951931Y-91411304D01*
X127951931Y-91397331D01*
X127951930Y-91397329D01*
X127917327Y-91223366D01*
X127917324Y-91223357D01*
X127849447Y-91059484D01*
X127849440Y-91059471D01*
X127750895Y-90911990D01*
X127750892Y-90911986D01*
X127625469Y-90786563D01*
X127625465Y-90786560D01*
X127477984Y-90688015D01*
X127477971Y-90688008D01*
X127314098Y-90620131D01*
X127314089Y-90620128D01*
X127140125Y-90585525D01*
X127140122Y-90585525D01*
X126962740Y-90585525D01*
X126962737Y-90585525D01*
X126788772Y-90620128D01*
X126788763Y-90620131D01*
X126624890Y-90688008D01*
X126624877Y-90688015D01*
X126477396Y-90786560D01*
X126477392Y-90786563D01*
X126351969Y-90911986D01*
X126351966Y-90911990D01*
X126253421Y-91059471D01*
X126253414Y-91059484D01*
X126185537Y-91223357D01*
X126185534Y-91223366D01*
X126150931Y-91397329D01*
X41638326Y-91397329D01*
X41652755Y-91352923D01*
X41652755Y-91352922D01*
X41668476Y-91304538D01*
X41668476Y-91304537D01*
X41668477Y-91304534D01*
X41700500Y-91102352D01*
X41700500Y-90897648D01*
X41671360Y-90713666D01*
X41668477Y-90695465D01*
X41617863Y-90539693D01*
X41605220Y-90500781D01*
X41605218Y-90500778D01*
X41605218Y-90500776D01*
X41553865Y-90399991D01*
X41512287Y-90318390D01*
X41464772Y-90252990D01*
X41391971Y-90152786D01*
X41247213Y-90008028D01*
X41081613Y-89887715D01*
X41081612Y-89887714D01*
X41081610Y-89887713D01*
X41014567Y-89853553D01*
X40899223Y-89794781D01*
X40704534Y-89731522D01*
X40529995Y-89703878D01*
X40502352Y-89699500D01*
X40297648Y-89699500D01*
X40273329Y-89703351D01*
X40095465Y-89731522D01*
X39900776Y-89794781D01*
X39718386Y-89887715D01*
X39552786Y-90008028D01*
X39408028Y-90152786D01*
X39287715Y-90318386D01*
X39194781Y-90500776D01*
X39131522Y-90695465D01*
X39099500Y-90897648D01*
X38100499Y-90897648D01*
X38100499Y-90399992D01*
X38097367Y-90369336D01*
X38089999Y-90297203D01*
X38089998Y-90297200D01*
X38075346Y-90252983D01*
X38034814Y-90130666D01*
X37942712Y-89981344D01*
X37818656Y-89857288D01*
X37669334Y-89765186D01*
X37502797Y-89710001D01*
X37502795Y-89710000D01*
X37400010Y-89699500D01*
X36199998Y-89699500D01*
X36199981Y-89699501D01*
X36097203Y-89710000D01*
X36097200Y-89710001D01*
X35930668Y-89765185D01*
X35930663Y-89765187D01*
X35781342Y-89857289D01*
X35657289Y-89981342D01*
X35565187Y-90130663D01*
X35565185Y-90130668D01*
X35557858Y-90152781D01*
X35510001Y-90297203D01*
X35510001Y-90297204D01*
X35510000Y-90297204D01*
X35499500Y-90399983D01*
X34500000Y-90399983D01*
X34500000Y-88124000D01*
X34519685Y-88056961D01*
X34572489Y-88011206D01*
X34624000Y-88000000D01*
X223062520Y-88000000D01*
X223129559Y-88019685D01*
G37*
%TD.AperFunction*%
%TD*%
M02*
